<svg width="160" height="48" viewBox="0 0 160 48" fill="none" xmlns="http://www.w3.org/2000/svg">
<mask id="mask0_144_2219" style="mask-type:alpha" maskUnits="userSpaceOnUse" x="0" y="0" width="160" height="48">
<rect width="160" height="48" fill="#D9D9D9"/>
</mask>
<g mask="url(#mask0_144_2219)">
<path d="M32.9114 15.3576L33.1061 16.565C33.1061 16.6429 33.3398 17.9282 33.3398 19.9924C33.3398 21.9398 33.1451 24.5494 32.444 27.4705C31.7429 30.2358 30.5355 33.5465 28.2765 36.7792C26.0175 40.0119 22.7459 43.2057 17.9942 45.7373L17.4099 46.0489L16.8647 45.7373C12.113 43.2057 8.84129 40.0119 6.62123 36.7792C4.36222 33.5465 3.11587 30.2358 2.45375 27.4705C1.75268 24.5494 1.55794 21.9398 1.55794 19.9924C1.55794 17.9282 1.75268 16.6429 1.79163 16.565L1.94742 15.3576C2.02532 14.9291 1.75268 14.5396 1.32425 14.5007C0.895813 14.4228 0.506329 14.6954 0.467381 15.1239L0.272639 16.3313C0.23369 16.4481 0 17.8503 0 19.9924C0 22.0177 0.194742 24.7831 0.934762 27.821C1.63583 30.7422 2.96008 34.2086 5.33593 37.636C7.71178 41.0635 11.1392 44.4131 16.1246 47.1005L17.0594 47.6068C17.2931 47.7237 17.5657 47.7237 17.7994 47.6068L18.7342 47.1005C23.6806 44.4131 27.147 41.0635 29.5229 37.636C31.8987 34.2086 33.223 30.7422 33.9241 27.821C34.6641 24.7831 34.8588 22.0177 34.8588 19.9535C34.8588 17.8113 34.6251 16.4481 34.6251 16.2923L34.4304 15.0849C34.3525 14.6565 33.963 14.3839 33.5735 14.4617C33.1451 14.5396 32.8335 14.9291 32.9114 15.3576Z" fill="white"/>
<path d="M6.11522 14.5396L17.4492 11.0732L29.0169 14.6175C29.4064 14.7344 29.8348 14.5007 29.9516 14.1112C30.0685 13.7217 29.8348 13.2933 29.4453 13.1764L17.6439 9.55424C17.5271 9.51529 17.3713 9.51529 17.2155 9.55424L5.64784 13.0596C5.25836 13.1764 5.02466 13.6049 5.14151 13.9944C5.25836 14.4228 5.68679 14.6565 6.11522 14.5396Z" fill="white"/>
<path d="M0.505714 15.5913L16.7472 47.2563C16.864 47.49 17.1367 47.6847 17.4093 47.6847C17.682 47.6847 17.9546 47.5289 18.0714 47.2952L27.9643 28.7948V28.7558L34.3129 15.5913C34.5077 15.2018 34.3519 14.7733 33.9624 14.5786C33.5729 14.3839 33.1445 14.5396 32.9497 14.9291L26.6401 28.0547L17.4483 45.2699L1.86891 14.8902C1.67417 14.5007 1.20678 14.3839 0.856249 14.5786C0.466766 14.7344 0.310972 15.2018 0.505714 15.5913Z" fill="white"/>
<path d="M8.29655 29.6906H26.3686C26.797 29.6906 27.1476 29.34 27.1476 28.9116C27.1476 28.4832 26.797 28.1326 26.3686 28.1326H8.29655C7.86811 28.1326 7.51758 28.4832 7.51758 28.9116C7.51758 29.34 7.86811 29.6906 8.29655 29.6906Z" fill="white"/>
<path d="M58.6558 23.1083H46.8934C46.6987 23.1083 46.5039 23.1862 46.3482 23.342C46.1924 23.4978 46.1145 23.6536 46.1145 23.8873V33.3128C46.1145 33.5075 46.1924 33.7023 46.3482 33.8581C46.5039 34.0138 46.6597 34.0917 46.8934 34.0917H58.6558V35.6886H46.8934C46.2313 35.6886 45.686 35.4549 45.2186 34.9876C44.7513 34.5202 44.5176 33.9749 44.5176 33.3128V23.8873C44.5176 23.2251 44.7513 22.6799 45.2186 22.2125C45.686 21.7451 46.2313 21.5114 46.8934 21.5114H58.6558V23.1083Z" fill="white"/>
<path d="M80.7005 21.5114V23.1083H69.4055V27.7821H78.4805V29.379H69.4055V34.0528H80.7005V35.6497H67.8086V21.5114H80.7005Z" fill="white"/>
<path d="M103.992 23.8873V28.0158C103.992 28.6779 103.758 29.2232 103.291 29.6906C102.823 30.1579 102.278 30.3916 101.616 30.3916H99.4738L103.914 35.6497H101.811L97.4095 30.3916H92.2294C92.1125 30.3916 91.8399 30.3527 91.4504 30.3137V35.6497H89.8535V21.5504H101.655C102.317 21.5504 102.862 21.784 103.33 22.2514C103.758 22.6799 103.992 23.2641 103.992 23.8873ZM92.1904 28.7948H101.655C101.85 28.7948 102.044 28.7169 102.2 28.5611C102.356 28.4053 102.434 28.2495 102.434 28.0158V23.8873C102.434 23.6925 102.356 23.4978 102.2 23.342C102.044 23.1862 101.889 23.1083 101.655 23.1083H92.2294C92.0346 23.1083 91.8399 23.1862 91.6841 23.342C91.5283 23.4978 91.4504 23.6536 91.4504 23.8873V28.0158C91.4504 28.2105 91.5283 28.4053 91.6841 28.5611C91.8009 28.7169 91.9957 28.7948 92.1904 28.7948Z" fill="white"/>
<path d="M112.443 21.5114H126.582V23.1083H120.311V35.6497H118.714V23.1083H112.443V21.5114Z" fill="white"/>
<path d="M135.15 35.6886V21.5114H136.747V35.6497H135.15V35.6886Z" fill="white"/>
<path d="M157.974 21.5114H160L154.079 28.6L160 35.6886H157.935L152.677 29.4179H148.12V35.6886H146.523V21.5114H148.12V27.7821H152.677L157.974 21.5114Z" fill="white"/>
</g>
</svg>
