<svg width="160" height="48" viewBox="0 0 160 48" fill="none" xmlns="http://www.w3.org/2000/svg">
<mask id="mask0_144_2218" style="mask-type:alpha" maskUnits="userSpaceOnUse" x="0" y="0" width="160" height="48">
<rect width="160" height="48" fill="#D9D9D9"/>
</mask>
<g mask="url(#mask0_144_2218)">
<path d="M150.256 36.1093V25.1815H152.832V26.5111H152.978C153.414 25.7009 154.494 24.9114 156.052 24.9114C158.504 24.9114 159.999 26.6358 159.999 28.9626V36.1093H157.299V29.669C157.299 28.3394 156.447 27.446 155.2 27.446C153.891 27.446 152.957 28.4848 152.957 29.856V36.1093H150.256Z" fill="white"/>
<path d="M147.514 24.2091C146.537 24.2091 145.852 23.6067 145.852 22.6302C145.852 21.6953 146.537 21.0721 147.514 21.0721C148.49 21.0721 149.176 21.6953 149.176 22.6302C149.176 23.6067 148.49 24.2091 147.514 24.2091ZM146.163 36.1091V25.1813H148.864V36.1091H146.163Z" fill="white"/>
<path d="M135.367 36.3794C132.147 36.3794 129.861 33.9695 129.861 30.7077C129.861 27.259 132.167 24.9114 135.367 24.9114C138.878 24.9114 140.789 27.5084 140.789 30.5831V31.4349H132.479C132.562 33.0969 133.705 34.2187 135.45 34.2187C136.779 34.2187 137.797 33.5955 138.172 32.7021H140.685C140.145 34.9251 138.192 36.3794 135.367 36.3794ZM132.521 29.5236H138.213C138.088 28.0485 136.946 27.0721 135.367 27.0721C133.85 27.0721 132.687 28.1524 132.521 29.5236Z" fill="white"/>
<path d="M117.25 40.1818V25.1815H119.909V26.5735H120.055C120.346 26.1164 121.343 24.9114 123.337 24.9114C126.391 24.9114 128.49 27.1967 128.49 30.6039C128.49 34.011 126.412 36.3794 123.42 36.3794C121.488 36.3794 120.45 35.2991 120.096 34.6966H119.951V40.1818H117.25ZM122.818 33.9279C124.563 33.9279 125.747 32.5775 125.747 30.6454C125.747 28.651 124.563 27.3629 122.797 27.3629C121.011 27.3629 119.889 28.7964 119.889 30.6454C119.889 32.6814 121.135 33.9279 122.818 33.9279Z" fill="white"/>
<path d="M97.8377 36.3794C94.6174 36.3794 92.332 33.9695 92.332 30.7077C92.332 27.259 94.6381 24.9114 97.8377 24.9114C101.349 24.9114 103.26 27.5084 103.26 30.5831V31.4349H94.9498C95.0329 33.0969 96.1754 34.2187 97.9208 34.2187C99.2504 34.2187 100.268 33.5955 100.642 32.7021H103.156C102.616 34.9251 100.663 36.3794 97.8377 36.3794ZM94.9914 29.5236H100.684C100.559 28.0485 99.4166 27.0721 97.8377 27.0721C96.3209 27.0721 95.1576 28.1524 94.9914 29.5236Z" fill="white"/>
<path d="M79.9062 36.109V33.5528L87.4684 23.6928V23.5424H80.1764V21.0721H90.917V23.6069L83.3549 33.4668V33.6387H90.9586V36.109H79.9062Z" fill="white"/>
<path d="M68.7852 36.1093V25.1815H71.3611V26.5111H71.5065C71.9429 25.7009 73.023 24.9114 74.5814 24.9114C77.0327 24.9114 78.5287 26.6358 78.5287 28.9626V36.1093H75.8278V29.669C75.8278 28.3394 74.9759 27.446 73.7295 27.446C72.4208 27.446 71.4857 28.4848 71.4857 29.856V36.1093H68.7852Z" fill="white"/>
<path d="M61.9898 36.3794C58.7697 36.3794 56.4844 33.9695 56.4844 30.7077C56.4844 27.259 58.7905 24.9114 61.9898 24.9114C65.5007 24.9114 67.412 27.5084 67.412 30.5831V31.4349H59.1022C59.1853 33.0969 60.3278 34.2187 62.0729 34.2187C63.4027 34.2187 64.4205 33.5955 64.7945 32.7021H67.3081C66.7682 34.9251 64.8153 36.3794 61.9898 36.3794ZM59.1437 29.5236H64.8361C64.7114 28.0485 63.5686 27.0721 61.9898 27.0721C60.4732 27.0721 59.3099 28.1524 59.1437 29.5236Z" fill="white"/>
<path d="M43.8711 40.1662V25.1434H46.5301V26.5735H46.6756C46.9665 26.1164 47.9638 24.9114 49.9583 24.9114C53.0121 24.9114 55.1104 27.1967 55.1104 30.6039C55.1104 34.011 53.0329 36.3794 50.0411 36.3794C48.1093 36.3794 47.0704 35.2991 46.7171 34.6966H46.5717V40.1662H43.8711ZM49.4388 33.9279C51.1839 33.9279 52.368 32.5775 52.368 30.6454C52.368 28.651 51.1839 27.3629 49.418 27.3629C47.6314 27.3629 46.5093 28.7964 46.5093 30.6454C46.5093 32.6814 47.7561 33.9279 49.4388 33.9279Z" fill="white"/>
<path d="M34.5379 36.3792C29.9736 36.3792 26.6152 33.0422 26.6152 28.5642C26.6152 24.1292 29.9954 20.7491 34.5593 20.7491C39.1236 20.7491 42.5038 24.1722 42.5038 28.5642C42.5038 32.9992 39.1022 36.3792 34.5379 36.3792ZM34.5593 33.6451C37.4444 33.6451 39.511 31.4921 39.511 28.5642C39.511 25.6793 37.4444 23.4833 34.5593 23.4833C31.6532 23.4833 29.5862 25.6793 29.5862 28.5642C29.5862 31.4921 31.6532 33.6451 34.5593 33.6451Z" fill="white"/>
<path d="M144.782 21.0085H142.162V36.1093H144.782V21.0085Z" fill="white"/>
<path d="M104.633 40.1816V25.1813H107.292V26.5733H107.438C107.728 26.1162 108.726 24.9113 110.72 24.9113C113.774 24.9113 115.872 27.1965 115.872 30.6037C115.872 34.0108 113.795 36.3792 110.803 36.3792C108.871 36.3792 107.832 35.2988 107.479 34.6964H107.334V40.1816H104.633ZM110.201 33.9277C111.946 33.9277 113.13 32.5773 113.13 30.6452C113.13 28.6508 111.946 27.3627 110.18 27.3627C108.393 27.3627 107.271 28.7962 107.271 30.6452C107.271 32.6812 108.518 33.9277 110.201 33.9277Z" fill="white"/>
<path d="M0 40.2035C2.57534 35.7476 4.76371 32.0728 7.54514 27.0362C8.52765 25.3367 10.2253 24.2806 12.3211 24.2806H15.6142L6.41785 40.2035H0Z" fill="white"/>
<path d="M0.0292969 17.007H19.7892L16.4129 22.8938H0.0292969V17.007Z" fill="white"/>
<path d="M9.92657 36.5372C10.6696 35.2236 11.8641 34.4075 13.5371 34.4075L19.7925 34.3904V40.2039H7.80664C8.55704 38.9169 9.20865 37.8064 9.92657 36.5372Z" fill="white"/>
</g>
</svg>
