<svg width="160" height="48" viewBox="0 0 160 48" fill="none" xmlns="http://www.w3.org/2000/svg">
<mask id="mask0_144_2220" style="mask-type:alpha" maskUnits="userSpaceOnUse" x="0" y="0" width="160" height="48">
<rect width="160" height="48" fill="#D9D9D9"/>
</mask>
<g mask="url(#mask0_144_2220)">
<path d="M42.0141 19.5H58.2155V22.3597H51.8451V38.4354H48.3421V22.3597H42V19.5H42.0141ZM57.5233 24.7249H60.5178V27.3708H60.5743C60.6732 26.9967 60.8568 26.6359 61.1252 26.2884C61.3936 25.941 61.7185 25.6069 62.0998 25.3263C62.4812 25.0323 62.905 24.8051 63.3711 24.618C63.8372 24.4443 64.3175 24.3508 64.7977 24.3508C65.1649 24.3508 65.4333 24.3641 65.5746 24.3775C65.7158 24.3909 65.8571 24.4176 66.0124 24.431V27.3441C65.7864 27.304 65.5604 27.2773 65.3203 27.2506C65.0802 27.2238 64.8542 27.2105 64.6282 27.2105C64.0914 27.2105 63.583 27.3174 63.1027 27.5178C62.6225 27.7183 62.2128 28.0256 61.8597 28.4131C61.5066 28.814 61.2241 29.2951 61.0122 29.8831C60.8003 30.471 60.7015 31.1392 60.7015 31.9009V38.422H57.5092V24.7249H57.5233ZM80.6883 38.4354H77.5525V36.5245H77.496C77.1006 37.2194 76.5214 37.7673 75.7445 38.1815C74.9677 38.5958 74.1767 38.8096 73.3716 38.8096C71.4647 38.8096 70.0804 38.3686 69.2329 37.4733C68.3854 36.5779 67.9617 35.2283 67.9617 33.4243V24.7249H71.1539V33.1303C71.1539 34.333 71.3941 35.1882 71.8884 35.6826C72.3687 36.1771 73.0608 36.431 73.9366 36.431C74.6146 36.431 75.1654 36.3374 75.6174 36.137C76.0694 35.9365 76.4367 35.6826 76.705 35.3486C76.9875 35.0278 77.1853 34.6269 77.3124 34.1726C77.4395 33.7183 77.496 33.2238 77.496 32.6893V24.7383H80.6883V38.4354ZM86.1264 34.039C86.2253 34.9209 86.5784 35.5356 87.1858 35.8964C87.8073 36.2439 88.5418 36.431 89.4034 36.431C89.7 36.431 90.039 36.4042 90.4204 36.3641C90.8018 36.3241 91.169 36.2305 91.4939 36.1102C91.8329 35.99 92.1013 35.8029 92.3273 35.5624C92.5391 35.3218 92.638 35.0145 92.6239 34.6269C92.6098 34.2394 92.4544 33.9187 92.1719 33.6782C91.8894 33.4243 91.5363 33.2372 91.0984 33.0768C90.6605 32.9298 90.1661 32.7962 89.6011 32.6893C89.0361 32.5824 88.4711 32.4621 87.892 32.3419C87.2988 32.2216 86.7197 32.0612 86.1688 31.8875C85.6179 31.7138 85.1235 31.4733 84.6857 31.1659C84.2478 30.8719 83.8947 30.4844 83.6404 30.0167C83.372 29.549 83.2449 28.9744 83.2449 28.2795C83.2449 27.5312 83.4427 26.9165 83.824 26.4087C84.2054 25.9009 84.6998 25.5 85.2789 25.1926C85.8722 24.8853 86.5219 24.6715 87.2423 24.5379C87.9627 24.4176 88.6548 24.3508 89.3045 24.3508C90.0531 24.3508 90.7735 24.431 91.4515 24.578C92.1295 24.7249 92.751 24.9655 93.3019 25.3129C93.8528 25.647 94.3048 26.088 94.672 26.6225C95.0393 27.157 95.2653 27.8118 95.3641 28.5735H92.0306C91.8753 27.8519 91.5363 27.3575 90.9854 27.1169C90.4345 26.863 89.7989 26.7428 89.0926 26.7428C88.8666 26.7428 88.5983 26.7561 88.2875 26.7962C87.9768 26.8363 87.6943 26.9031 87.4118 26.9967C87.1434 27.0902 86.9174 27.2372 86.7197 27.4243C86.536 27.6114 86.4372 27.8519 86.4372 28.1592C86.4372 28.5334 86.5784 28.8274 86.8468 29.0546C87.1151 29.2817 87.4683 29.4688 87.9061 29.6292C88.344 29.7762 88.8384 29.9098 89.4034 30.0167C89.9684 30.1236 90.5475 30.2439 91.1408 30.3641C91.7199 30.4844 92.2849 30.6448 92.8499 30.8185C93.4149 30.9922 93.9093 31.2327 94.3471 31.5401C94.785 31.8474 95.1381 32.2216 95.4065 32.6759C95.6749 33.1303 95.8161 33.7049 95.8161 34.373C95.8161 35.1882 95.6184 35.8697 95.2229 36.4443C94.8274 37.0056 94.3189 37.4733 93.6974 37.8207C93.0759 38.1681 92.3696 38.4354 91.6069 38.5958C90.8441 38.7561 90.0814 38.8363 89.3328 38.8363C88.4146 38.8363 87.5672 38.7428 86.7903 38.5423C86.0134 38.3419 85.3354 38.0479 84.7704 37.6604C84.2054 37.2595 83.7534 36.765 83.4285 36.1771C83.1037 35.5891 82.9342 34.8808 82.9059 34.0657H86.1264V34.039ZM96.6636 24.7249H99.079V20.6091H102.271V24.7249H105.153V26.9833H102.271V34.3062C102.271 34.6269 102.285 34.8942 102.314 35.1347C102.342 35.3619 102.412 35.5624 102.511 35.7227C102.61 35.8831 102.766 36.0033 102.977 36.0835C103.189 36.1637 103.458 36.2038 103.825 36.2038C104.051 36.2038 104.277 36.2038 104.503 36.1904C104.729 36.1771 104.955 36.1503 105.181 36.0969V38.4354C104.828 38.4755 104.475 38.5022 104.15 38.5423C103.811 38.5824 103.472 38.5958 103.119 38.5958C102.271 38.5958 101.593 38.5156 101.085 38.3686C100.576 38.2216 100.167 37.9944 99.8841 37.7004C99.5875 37.4065 99.4039 37.0457 99.2909 36.6047C99.192 36.1637 99.1214 35.6559 99.1073 35.0947V27.01H96.6919V24.7249H96.6636ZM107.413 24.7249H110.435V26.5824H110.492C110.944 25.7806 111.565 25.2194 112.371 24.8719C113.176 24.5245 114.037 24.3508 114.984 24.3508C116.128 24.3508 117.117 24.5379 117.964 24.9254C118.812 25.2996 119.518 25.8207 120.083 26.4889C120.648 27.157 121.057 27.9321 121.34 28.814C121.622 29.696 121.764 30.6448 121.764 31.647C121.764 32.569 121.637 33.4644 121.382 34.3196C121.128 35.1882 120.747 35.9499 120.238 36.618C119.73 37.2862 119.08 37.8073 118.289 38.2082C117.498 38.6091 116.58 38.8096 115.506 38.8096C115.04 38.8096 114.574 38.7695 114.108 38.6893C113.642 38.6091 113.19 38.4755 112.766 38.3018C112.342 38.1281 111.933 37.9009 111.58 37.6203C111.212 37.3396 110.916 37.0189 110.661 36.6581H110.605V43.5H107.413V24.7249ZM118.571 31.5935C118.571 30.9788 118.487 30.3775 118.317 29.7895C118.148 29.2016 117.893 28.6938 117.554 28.2394C117.215 27.7851 116.792 27.4243 116.297 27.157C115.789 26.8898 115.21 26.7428 114.56 26.7428C113.218 26.7428 112.201 27.1837 111.523 28.0657C110.845 28.9477 110.506 30.1236 110.506 31.5935C110.506 32.2884 110.591 32.9298 110.774 33.5178C110.958 34.1058 111.212 34.6136 111.58 35.0412C111.933 35.4688 112.356 35.8029 112.851 36.0434C113.345 36.2973 113.924 36.4176 114.574 36.4176C115.309 36.4176 115.916 36.2706 116.424 35.99C116.933 35.7094 117.343 35.3352 117.667 34.8942C117.992 34.4399 118.232 33.9321 118.374 33.3575C118.501 32.7829 118.571 32.1949 118.571 31.5935ZM124.207 19.5H127.4V22.3597H124.207V19.5ZM124.207 24.7249H127.4V38.4354H124.207V24.7249ZM130.253 19.5H133.445V38.4354H130.253V19.5ZM143.234 38.8096C142.075 38.8096 141.044 38.6225 140.14 38.2617C139.236 37.9009 138.474 37.3931 137.838 36.765C137.216 36.1236 136.736 35.3619 136.411 34.48C136.086 33.598 135.917 32.6225 135.917 31.5668C135.917 30.5245 136.086 29.5624 136.411 28.6804C136.736 27.7984 137.216 27.0367 137.838 26.3953C138.459 25.7539 139.236 25.2595 140.14 24.8987C141.044 24.5379 142.075 24.3508 143.234 24.3508C144.392 24.3508 145.423 24.5379 146.327 24.8987C147.231 25.2595 147.994 25.7673 148.629 26.3953C149.251 27.0367 149.731 27.7984 150.056 28.6804C150.381 29.5624 150.55 30.5245 150.55 31.5668C150.55 32.6225 150.381 33.598 150.056 34.48C149.731 35.3619 149.251 36.1236 148.629 36.765C148.008 37.4065 147.231 37.9009 146.327 38.2617C145.423 38.6225 144.392 38.8096 143.234 38.8096ZM143.234 36.4176C143.94 36.4176 144.561 36.2706 145.084 35.99C145.607 35.7094 146.03 35.3352 146.369 34.8808C146.708 34.4265 146.949 33.9053 147.118 33.3307C147.273 32.7561 147.358 32.1681 147.358 31.5668C147.358 30.9788 147.273 30.4042 147.118 29.8163C146.963 29.2283 146.708 28.7205 146.369 28.2661C146.03 27.8118 145.607 27.451 145.084 27.1704C144.561 26.8898 143.94 26.7428 143.234 26.7428C142.527 26.7428 141.906 26.8898 141.383 27.1704C140.861 27.451 140.437 27.8252 140.098 28.2661C139.759 28.7205 139.519 29.2283 139.349 29.8163C139.194 30.4042 139.109 30.9788 139.109 31.5668C139.109 32.1681 139.194 32.7561 139.349 33.3307C139.505 33.9053 139.759 34.4265 140.098 34.8808C140.437 35.3352 140.861 35.7094 141.383 35.99C141.906 36.284 142.527 36.4176 143.234 36.4176ZM151.483 24.7249H153.898V20.6091H157.09V24.7249H159.972V26.9833H157.09V34.3062C157.09 34.6269 157.104 34.8942 157.133 35.1347C157.161 35.3619 157.231 35.5624 157.33 35.7227C157.429 35.8831 157.585 36.0033 157.797 36.0835C158.008 36.1637 158.277 36.2038 158.644 36.2038C158.87 36.2038 159.096 36.2038 159.322 36.1904C159.548 36.1771 159.774 36.1503 160 36.0969V38.4354C159.647 38.4755 159.294 38.5022 158.969 38.5423C158.63 38.5824 158.291 38.5958 157.938 38.5958C157.09 38.5958 156.412 38.5156 155.904 38.3686C155.395 38.2216 154.986 37.9944 154.703 37.7004C154.407 37.4065 154.223 37.0457 154.11 36.6047C154.011 36.1637 153.94 35.6559 153.926 35.0947V27.01H151.511V24.7249H151.483Z" fill="white"/>
<path d="M38 18.2581H23.4891L19.007 4.5L14.5109 18.2581L0 18.2442L11.7516 26.7558L7.25544 40.5L19.007 32.0023L30.7446 40.5L26.2624 26.7558L38 18.2581Z" fill="white"/>
<path d="M27.5 30L26.5 26.5L19 32L27.5 30Z" fill="#565656"/>
</g>
</svg>
