<svg xmlns="http://www.w3.org/2000/svg" width="24px" height="24px" fill="none" viewBox="0 0 32 32"><path fill="currentColor" d="M25.737 7.116c3.144 4.668 4.716 9.909 4.144 15.959 0 0 0 .047-.047.047a22.5 22.5 0 0 1-7.003 3.526c-.048.047-.048 0-.096 0-.523-.762-1-1.525-1.429-2.335v-.095l.048-.047c.762-.286 1.477-.62 2.191-1.049 0 0 .048 0 .048-.047 0-.048 0-.048-.048-.095a2.6 2.6 0 0 1-.428-.334h-.096c-4.525 2.096-9.48 2.096-14.053 0h-.095a2.6 2.6 0 0 1-.43.334c-.047.047-.047.047-.047.095 0 .047 0 .047.048.047.667.43 1.429.763 2.191 1.049 0 0 0 .047.048.047v.095c-.429.81-.905 1.573-1.43 2.335-.047 0-.095.047-.095 0a22.5 22.5 0 0 1-7.002-3.526c-.048 0-.048-.047-.048-.047-.476-5.24.524-10.528 4.145-15.96H6.3c1.81-.857 3.716-1.428 5.67-1.762.047-.047.094 0 .094 0 .286.477.524 1 .715 1.477a20.8 20.8 0 0 1 6.431 0c.19-.476.429-1 .715-1.477 0 0 .047-.047.095 0 1.953.334 3.859.905 5.67 1.763zM11.35 19.883c1.381 0 2.525-1.286 2.525-2.81 0-1.573-1.096-2.811-2.525-2.811-1.382 0-2.525 1.238-2.525 2.81 0 1.525 1.143 2.811 2.525 2.811m9.29 0c1.429 0 2.524-1.286 2.524-2.81.048-1.573-1.095-2.811-2.525-2.811-1.381 0-2.477 1.238-2.477 2.81 0 1.525 1.096 2.811 2.477 2.811"></path></svg>