<svg width="27" height="27" viewBox="0 0 27 27" fill="none" xmlns="http://www.w3.org/2000/svg">
<path d="M24.75 9.5625C24.75 13.6012 21.4762 16.875 17.4375 16.875C17.2463 16.875 17.0438 16.8637 16.8525 16.8525C16.5713 13.2862 13.7137 10.4288 10.1475 10.1475C10.1362 9.95625 10.125 9.75375 10.125 9.5625C10.125 5.52375 13.3988 2.25 17.4375 2.25C21.4762 2.25 24.75 5.52375 24.75 9.5625Z" fill="#0B6D6C"/>
<path d="M9.5625 10.125C9.75374 10.125 9.95622 10.1362 10.1475 10.1475C13.7137 10.4287 16.5713 13.2863 16.8525 16.8525C16.8638 17.0438 16.875 17.2463 16.875 17.4375C16.875 21.4762 13.6012 24.75 9.5625 24.75C5.52375 24.75 2.25 21.4762 2.25 17.4375C2.25 13.3988 5.52375 10.125 9.5625 10.125ZM8.57227 16.4473L6.75 17.4375L8.57227 18.4277L9.5625 20.25L10.5527 18.4277L12.375 17.4375L10.5527 16.4473L9.5625 14.625L8.57227 16.4473Z" fill="#10EDED"/>
</svg>
