<svg xmlns="http://www.w3.org/2000/svg" width="24px" height="24px" fill="none" viewBox="0 0 32 32"><path fill="currentColor" d="m4.631 14.581 15.849-6.53c1.564-.68 6.87-2.857 6.87-2.857s2.449-.952 2.245 1.36c-.068.953-.612 4.286-1.157 7.891l-1.7 10.68s-.136 1.564-1.293 1.836c-1.156.272-3.06-.952-3.4-1.225-.273-.204-5.102-3.265-6.87-4.761-.477-.408-1.02-1.224.067-2.177 2.45-2.244 5.374-5.033 7.143-6.802.816-.816 1.632-2.72-1.769-.408l-9.59 6.462s-1.09.68-3.13.068-4.421-1.428-4.421-1.428-1.633-1.02 1.156-2.109"></path></svg>