<svg width="27" height="27" viewBox="0 0 27 27" fill="none" xmlns="http://www.w3.org/2000/svg">
<path d="M8.4375 5.0625H8.15625V2.25C8.15625 1.78875 7.77375 1.40625 7.3125 1.40625C6.85125 1.40625 6.46875 1.78875 6.46875 2.25V5.0625H6.1875C4.39875 5.0625 3.375 6.08625 3.375 7.875V14.625C3.375 16.4137 4.39875 17.4375 6.1875 17.4375H6.46875V24.75C6.46875 25.2113 6.85125 25.5938 7.3125 25.5938C7.77375 25.5938 8.15625 25.2113 8.15625 24.75V17.4375H8.4375C10.2263 17.4375 11.25 16.4137 11.25 14.625V7.875C11.25 6.08625 10.2263 5.0625 8.4375 5.0625Z" fill="#0B6D6C"/>
<path d="M20.8125 9.5625H20.5312V2.25C20.5312 1.78875 20.1487 1.40625 19.6875 1.40625C19.2262 1.40625 18.8438 1.78875 18.8438 2.25V9.5625H18.5625C16.7737 9.5625 15.75 10.5863 15.75 12.375V19.125C15.75 20.9137 16.7737 21.9375 18.5625 21.9375H18.8438V24.75C18.8438 25.2113 19.2262 25.5938 19.6875 25.5938C20.1487 25.5938 20.5312 25.2113 20.5312 24.75V21.9375H20.8125C22.6013 21.9375 23.625 20.9137 23.625 19.125V12.375C23.625 10.5863 22.6013 9.5625 20.8125 9.5625Z" fill="#10EDED"/>
</svg>
