<svg width="133" height="40" viewBox="0 0 133 40" fill="none" xmlns="http://www.w3.org/2000/svg">
<mask id="mask0_158_1547" style="mask-type:alpha" maskUnits="userSpaceOnUse" x="0" y="0" width="133" height="40">
<rect x="0.5" width="132" height="40" fill="#D9D9D9"/>
</mask>
<g mask="url(#mask0_158_1547)">
<path d="M42.1896 20.8981V20.5699C42.1896 19.7453 41.9075 19.1142 41.3437 18.6766C40.7968 18.2222 40.0791 17.995 39.1904 17.995C38.5069 17.995 37.9685 18.1128 37.5755 18.3484C37.1995 18.5672 36.8406 18.9038 36.4989 19.3582C36.3963 19.4929 36.2853 19.5854 36.1656 19.6359C36.0461 19.6864 35.8837 19.7116 35.6786 19.7116H34.9096C34.7216 19.7116 34.5507 19.6443 34.397 19.5097C34.2602 19.375 34.2005 19.2152 34.2174 19.03C34.2688 18.5251 34.5165 18.0287 34.9608 17.5406C35.4222 17.0357 36.029 16.6234 36.7808 16.3036C37.5328 15.9839 38.336 15.824 39.1904 15.824C40.7797 15.824 42.0613 16.2615 43.0354 17.1367C44.0266 18.0118 44.5223 19.2404 44.5223 20.8224V28.5219C44.5223 28.7071 44.4538 28.8671 44.3172 29.0016C44.1804 29.1362 44.0181 29.2035 43.8301 29.2035H42.8816C42.6936 29.2035 42.5314 29.1362 42.3946 29.0016C42.2579 28.8671 42.1896 28.7071 42.1896 28.5219V27.4869C41.9162 28.0928 41.3351 28.5725 40.4464 28.9259C39.5578 29.2794 38.6691 29.456 37.7805 29.456C36.909 29.456 36.1315 29.3045 35.4478 29.0016C34.7643 28.6818 34.2346 28.2527 33.8586 27.7141C33.4997 27.1755 33.3203 26.5698 33.3203 25.8965C33.3203 24.6342 33.7989 23.6498 34.7558 22.9429C35.7128 22.2192 36.9859 21.7312 38.5752 21.4787L42.1896 20.8981ZM42.1896 22.9178L39.1648 23.3973C38.0539 23.5656 37.191 23.8434 36.5758 24.2304C35.9606 24.6006 35.653 25.0718 35.653 25.6442C35.653 26.0648 35.8494 26.4435 36.2426 26.7802C36.6355 27.1167 37.2338 27.285 38.037 27.285C39.2674 27.285 40.2671 26.94 41.036 26.2499C41.805 25.56 42.1896 24.6595 42.1896 23.5488V22.9178Z" fill="white"/>
<path d="M50.5944 28.522C50.5944 28.7071 50.5261 28.8671 50.3893 29.0017C50.2526 29.1363 50.0902 29.2036 49.9022 29.2036H48.9539C48.7659 29.2036 48.6035 29.1363 48.4668 29.0017C48.33 28.8671 48.2617 28.7071 48.2617 28.522V11.9616C48.2617 11.7765 48.33 11.6166 48.4668 11.482C48.6035 11.3473 48.7659 11.28 48.9539 11.28H49.9022C50.0902 11.28 50.2526 11.3473 50.3893 11.482C50.5261 11.6166 50.5944 11.7765 50.5944 11.9616V28.522Z" fill="white"/>
<path d="M59.8286 27.285C61.5375 27.285 62.691 26.6287 63.2892 25.3158C63.4087 25.0635 63.5284 24.8867 63.6481 24.7858C63.7676 24.6848 63.93 24.6342 64.1351 24.6342H64.9041C65.0921 24.6342 65.2543 24.7016 65.3911 24.8363C65.5278 24.9541 65.5961 25.0971 65.5961 25.2654C65.5961 25.8376 65.3655 26.4519 64.9041 27.1083C64.4426 27.7647 63.7762 28.32 62.9046 28.7744C62.033 29.2288 61.0078 29.456 59.8286 29.456C58.6153 29.456 57.5642 29.2035 56.6757 28.6987C55.7871 28.1938 55.1034 27.5039 54.625 26.6287C54.1465 25.7366 53.8816 24.7437 53.8303 23.6498C53.8132 23.4478 53.8047 23.0608 53.8047 22.4885C53.8047 22.0846 53.8132 21.7985 53.8303 21.6302C53.9842 19.9136 54.5736 18.5167 55.5991 17.4396C56.6244 16.3625 58.0343 15.824 59.8286 15.824C61.0078 15.824 62.0246 16.0512 62.879 16.5056C63.7505 16.9431 64.4084 17.4901 64.8527 18.1465C65.3142 18.786 65.562 19.3919 65.5961 19.9641C65.6132 20.1492 65.5449 20.3091 65.3911 20.4437C65.2543 20.5784 65.0921 20.6457 64.9041 20.6457H64.1351C63.93 20.6457 63.7676 20.5952 63.6481 20.4942C63.5284 20.3932 63.4087 20.2165 63.2892 19.9641C62.691 18.6514 61.5375 17.995 59.8286 17.995C58.8887 17.995 58.0684 18.3064 57.3677 18.9291C56.6671 19.5517 56.2655 20.4942 56.1629 21.7564C56.146 21.9416 56.1373 22.2445 56.1373 22.6653C56.1373 23.0523 56.146 23.3384 56.1629 23.5235C56.2826 24.7858 56.6842 25.7282 57.3677 26.3509C58.0684 26.9736 58.8887 27.285 59.8286 27.285Z" fill="white"/>
<path d="M80.5067 28.522C80.5067 28.7071 80.4383 28.8671 80.3017 29.0017C80.1649 29.1363 80.0027 29.2036 79.8147 29.2036H78.8662C78.6782 29.2036 78.5158 29.1363 78.3791 29.0017C78.2425 28.8671 78.174 28.7071 78.174 28.522V21.8575C78.174 20.5953 77.8579 19.636 77.2257 18.9796C76.5934 18.3233 75.7132 17.9951 74.5854 17.9951C73.4746 17.9951 72.5945 18.3233 71.945 18.9796C71.3129 19.636 70.9967 20.5953 70.9967 21.8575V28.522C70.9967 28.7071 70.9282 28.8671 70.7916 29.0017C70.6549 29.1363 70.4925 29.2036 70.3045 29.2036H69.3561C69.1681 29.2036 69.0058 29.1363 68.869 29.0017C68.7324 28.8671 68.6641 28.7071 68.6641 28.522V11.9616C68.6641 11.7765 68.7324 11.6166 68.869 11.482C69.0058 11.3473 69.1681 11.28 69.3561 11.28H70.3045C70.4925 11.28 70.6549 11.3473 70.7916 11.482C70.9282 11.6166 70.9967 11.7765 70.9967 11.9616V17.5407C71.3726 17.0526 71.8854 16.6487 72.5346 16.3289C73.2012 15.9923 74.0129 15.824 74.9698 15.824C76.0465 15.824 77.0035 16.0512 77.8409 16.5056C78.6782 16.96 79.3276 17.6164 79.7891 18.4747C80.2675 19.3162 80.5067 20.3176 80.5067 21.4788V28.522Z" fill="white"/>
<path d="M89.4897 15.824C91.3183 15.824 92.7623 16.3962 93.8218 17.5406C94.8814 18.685 95.4111 20.2418 95.4111 22.2109V22.8925C95.4111 23.0776 95.3428 23.2374 95.206 23.3722C95.0694 23.5067 94.907 23.5741 94.719 23.5741H85.901V23.7254C85.9352 24.8363 86.277 25.7114 86.9263 26.3509C87.5929 26.9736 88.4473 27.285 89.4897 27.285C90.3442 27.285 91.0021 27.1755 91.4636 26.9568C91.942 26.7381 92.3692 26.4267 92.7452 26.0227C92.8818 25.8882 93.0015 25.7955 93.1041 25.7451C93.2237 25.6946 93.3775 25.6693 93.5655 25.6693H94.3345C94.5396 25.6693 94.7105 25.7366 94.8471 25.8714C94.9839 26.0059 95.0436 26.1658 95.0266 26.3509C94.9582 26.8053 94.7018 27.2767 94.2575 27.7647C93.8303 28.2359 93.2066 28.6399 92.3863 28.9763C91.5831 29.2962 90.6177 29.456 89.4897 29.456C88.3961 29.456 87.422 29.212 86.5674 28.7239C85.713 28.2191 85.0295 27.529 84.5168 26.6539C84.0212 25.7787 83.7221 24.7942 83.6196 23.7003C83.5855 23.1954 83.5684 22.8083 83.5684 22.539C83.5684 22.2698 83.5855 21.8827 83.6196 21.3778C83.7221 20.3343 84.0212 19.3919 84.5168 18.5504C85.0295 17.7089 85.7045 17.0441 86.5418 16.5561C87.3964 16.068 88.3789 15.824 89.4897 15.824ZM93.1041 21.4535V21.3778C93.1041 20.3512 92.7708 19.5349 92.1044 18.9291C91.4549 18.3064 90.5834 17.995 89.4897 17.995C88.4986 17.995 87.6527 18.3064 86.952 18.9291C86.2684 19.5517 85.9181 20.368 85.901 21.3778V21.4535H93.1041Z" fill="white"/>
<path d="M100.835 17.5406C101.245 17.0189 101.706 16.6066 102.219 16.3036C102.731 15.9839 103.415 15.824 104.269 15.824C106.269 15.824 107.67 16.5561 108.473 18.0203C108.969 17.3134 109.533 16.7749 110.165 16.4046C110.798 16.0175 111.626 15.824 112.652 15.824C114.326 15.824 115.565 16.3205 116.369 17.3134C117.189 18.3064 117.599 19.7116 117.599 21.5292V28.5219C117.599 28.7071 117.531 28.8671 117.394 29.0016C117.257 29.1362 117.095 29.2035 116.907 29.2035H115.958C115.77 29.2035 115.608 29.1362 115.471 29.0016C115.335 28.8671 115.266 28.7071 115.266 28.5219V21.7817C115.266 19.2572 114.258 17.995 112.242 17.995C111.319 17.995 110.584 18.2979 110.037 18.9038C109.49 19.5097 109.217 20.4101 109.217 21.605V28.5219C109.217 28.7071 109.148 28.8671 109.012 29.0016C108.875 29.1362 108.713 29.2035 108.525 29.2035H107.576C107.388 29.2035 107.226 29.1362 107.089 29.0016C106.952 28.8671 106.884 28.7071 106.884 28.5219V21.7817C106.884 19.2572 105.876 17.995 103.859 17.995C102.937 17.995 102.202 18.2979 101.655 18.9038C101.108 19.5097 100.835 20.4101 100.835 21.605V28.5219C100.835 28.7071 100.766 28.8671 100.629 29.0016C100.493 29.1362 100.33 29.2035 100.142 29.2035H99.194C99.006 29.2035 98.8437 29.1362 98.7069 29.0016C98.5703 28.8671 98.502 28.7071 98.502 28.5219V16.758C98.502 16.5729 98.5703 16.413 98.7069 16.2784C98.8437 16.1437 99.006 16.0764 99.194 16.0764H100.142C100.33 16.0764 100.493 16.1437 100.629 16.2784C100.766 16.413 100.835 16.5729 100.835 16.758V17.5406Z" fill="white"/>
<path d="M124.78 33.3941C124.626 33.7981 124.378 34 124.037 34H122.986C122.815 34 122.669 33.9412 122.55 33.8234C122.43 33.7055 122.37 33.5624 122.37 33.3941C122.37 33.3269 122.379 33.2679 122.396 33.2175L124.857 27.9413L119.781 16.859C119.764 16.8085 119.756 16.7496 119.756 16.6823C119.756 16.514 119.816 16.3709 119.935 16.2531C120.055 16.1353 120.2 16.0764 120.371 16.0764H121.422C121.764 16.0764 122.012 16.2784 122.165 16.6823L126.113 25.2654L130.112 16.6823C130.266 16.2784 130.513 16.0764 130.855 16.0764H131.906C132.077 16.0764 132.222 16.1353 132.342 16.2531C132.462 16.3709 132.521 16.514 132.521 16.6823C132.521 16.7496 132.513 16.8085 132.496 16.859L124.78 33.3941Z" fill="white"/>
<path d="M23.6284 20.8523L15.0211 6.23918C14.9794 6.16702 14.9191 6.10691 14.8461 6.06492C14.7732 6.02293 14.6902 6.00054 14.6056 6.00001C14.521 5.99948 14.4378 6.02083 14.3643 6.0619C14.2908 6.10298 14.2297 6.16232 14.1871 6.23395L11.6093 10.6127C11.5249 10.756 11.4805 10.9186 11.4805 11.0841C11.4805 11.2496 11.5249 11.4122 11.6093 11.5555L17.2218 21.0887C17.3063 21.2322 17.4279 21.3513 17.5743 21.434C17.7207 21.5168 17.8868 21.5603 18.0558 21.5601H23.2115C23.2958 21.5599 23.3787 21.5379 23.4516 21.4964C23.5248 21.455 23.5854 21.3954 23.6276 21.3238C23.6697 21.2521 23.6921 21.1709 23.6923 21.0881C23.6923 21.0054 23.6704 20.9241 23.6284 20.8523Z" fill="white"/>
<path d="M1.06637 28.4897L9.67366 13.8765C9.71589 13.8049 9.77661 13.7455 9.84968 13.7042C9.92275 13.6629 10.0056 13.6411 10.09 13.6411C10.1743 13.6411 10.2572 13.6629 10.3303 13.7042C10.4034 13.7455 10.464 13.8049 10.5063 13.8765L13.0854 18.2513C13.1698 18.3949 13.2142 18.5577 13.2142 18.7234C13.2142 18.8891 13.1698 19.0519 13.0854 19.1955L7.47287 28.7287C7.38869 28.8721 7.26738 28.9913 7.12119 29.074C6.975 29.1567 6.80909 29.2002 6.64026 29.2001H1.48335C1.3984 29.2005 1.31485 29.1788 1.24121 29.1373C1.16756 29.0957 1.10645 29.0359 1.06408 28.9637C1.02171 28.8916 0.999601 28.8097 1.00001 28.7265C1.00041 28.6431 1.02331 28.5615 1.06637 28.4897Z" fill="white"/>
<path d="M10.5058 29.1969H27.7204C27.8049 29.1969 27.8878 29.175 27.9609 29.1335C28.034 29.0921 28.0947 29.0324 28.1367 28.9607C28.1788 28.889 28.2011 28.8076 28.2009 28.7249C28.2007 28.642 28.1785 28.5607 28.1361 28.4892L25.5609 24.1117C25.4764 23.9682 25.3548 23.8492 25.2084 23.7665C25.062 23.6836 24.8959 23.6402 24.727 23.6404H13.5019C13.3329 23.6402 13.1669 23.6836 13.0205 23.7665C12.8741 23.8492 12.7525 23.9682 12.668 24.1117L10.0902 28.4892C10.0479 28.5607 10.0255 28.642 10.0254 28.7249C10.0253 28.8076 10.0474 28.889 10.0895 28.9607C10.1316 29.0324 10.1923 29.0921 10.2654 29.1335C10.3385 29.175 10.4214 29.1969 10.5058 29.1969Z" fill="white"/>
</g>
</svg>
