<svg width="133" height="40" viewBox="0 0 133 40" fill="none" xmlns="http://www.w3.org/2000/svg">
<mask id="mask0_158_1466" style="mask-type:alpha" maskUnits="userSpaceOnUse" x="0" y="0" width="133" height="40">
<rect x="0.5" width="132" height="40" fill="#D9D9D9"/>
</mask>
<g mask="url(#mask0_158_1466)">
<path d="M49.5873 33.455C47.3943 33.455 45.2796 32.6528 44.0336 30.5367H43.3101V32.8529H38.3242V5.30005H43.3101V15.3237H44.0336C45.3135 13.1293 47.7065 12.2835 49.8656 12.2835C55.2523 12.2835 58.8922 16.5941 58.8922 22.6639C58.8922 28.7338 54.8967 33.4446 49.5873 33.4446V33.4559V33.455ZM48.5082 28.9896C51.5803 28.9896 53.7724 26.4724 53.7724 22.8754C53.7724 19.2783 51.5351 16.7611 48.5082 16.7611C45.4814 16.7611 43.3214 19.1557 43.3214 22.8754C43.3214 26.5951 45.5144 28.9896 48.5082 28.9896ZM68.1076 33.455C64.279 33.455 61.1626 31.1388 61.1626 27.3408C61.1626 23.5427 64.5903 21.4266 68.7423 20.9925L74.6082 20.3912V19.2775C74.6082 17.5625 73.2057 16.3591 70.7353 16.3591C68.265 16.3591 67.018 17.3946 66.5841 18.9538H61.7982C62.2765 15.1558 65.4268 12.2827 70.7353 12.2827C76.0438 12.2827 79.2385 14.7555 79.2385 19.589V29.3342C79.2385 30.5706 79.3611 32.2856 79.4385 32.7642V32.8425H74.6526C74.6082 32.1629 74.6082 31.5286 74.6082 30.849H73.8848C72.6492 32.8425 70.4901 33.4437 68.0971 33.4437L68.1084 33.455H68.1076ZM69.4658 29.7022C72.7378 29.7022 74.6186 27.2294 74.6186 24.713V23.7107L70.2223 24.2345C67.5067 24.5573 66.1928 25.3482 66.1928 27.1076C66.1928 28.8669 67.5511 29.7022 69.4649 29.7022H69.4658ZM91.2251 33.455C86.1939 33.455 82.5993 30.9378 82.0427 26.984H86.9513C87.5078 28.7434 89.3442 29.5012 91.259 29.5012C93.1737 29.5012 94.8093 28.6659 94.8093 27.185C94.8093 25.7041 93.2954 25.303 91.2146 24.9462L89.0999 24.5895C85.1044 23.9099 82.6332 22.228 82.6332 18.6423C82.6332 15.0566 86.0609 12.294 90.8138 12.294C95.5666 12.294 98.5161 14.4545 99.3509 18.2081H94.5649C94.0084 16.7272 92.5285 16.1364 90.8477 16.1364C89.1669 16.1364 87.4974 17.0161 87.4974 18.2525C87.4974 19.4889 88.5321 19.9344 90.692 20.2903L92.8067 20.647C96.6797 21.2822 99.6291 22.8858 99.6291 26.7613C99.6291 30.6367 96.1118 33.4768 91.2033 33.4768L91.2259 33.4541L91.2251 33.455ZM112.138 33.455C105.994 33.455 101.921 29.2559 101.921 22.8301C101.921 16.4044 106.229 12.2827 112.183 12.2827C118.138 12.2827 122.001 16.916 122.001 23.0302V23.9099H106.797C107.042 27.2285 109.357 29.1776 112.15 29.1776C114.944 29.1776 115.868 28.3753 116.547 26.9832H121.655C120.621 30.7368 116.902 33.4541 112.15 33.4541H112.139L112.138 33.455ZM117.125 20.6026C116.724 17.9297 114.609 16.3704 112.139 16.3704C109.669 16.3704 107.353 17.8853 106.875 20.6026H117.137H117.126H117.125Z" fill="white"/>
<path d="M12.182 32.6229C11.3934 32.6229 11 32.2287 11 31.441V14.1665C11 13.378 11.3943 12.9846 12.182 12.9846H29.4564C30.2449 12.9846 30.6383 13.3789 30.6383 14.1665V31.4402C30.6383 32.2287 30.244 32.6221 29.4564 32.6221H12.182V32.6229Z" fill="white"/>
</g>
</svg>
