<svg width="133" height="40" viewBox="0 0 133 40" fill="none" xmlns="http://www.w3.org/2000/svg">
<mask id="mask0_158_1498" style="mask-type:alpha" maskUnits="userSpaceOnUse" x="0" y="0" width="133" height="40">
<rect x="0.5" width="132" height="40" fill="#D9D9D9"/>
</mask>
<g mask="url(#mask0_158_1498)">
<path d="M86.0098 27.9622V4.96216H91.0098V27.9622H86.0098Z" fill="white"/>
<path d="M30.4064 34.9622H20.0098V10.9622H29.9905C34.8423 10.9622 37.6632 13.589 37.6632 17.705C37.6632 20.3664 35.8473 22.09 34.5927 22.6622C36.0899 23.3379 38.0098 24.8547 38.0098 28.0538C38.0098 32.5353 34.8353 34.9622 30.4064 34.9622ZM29.6024 15.1403H24.8546V20.6697H29.6024C31.6609 20.6697 32.8115 19.5597 32.8115 17.905C32.8115 16.2572 31.6609 15.1403 29.6024 15.1403ZM29.9143 24.8823H24.8546V30.784H29.9143C32.1114 30.784 33.158 29.4396 33.158 27.8194C33.158 26.1992 32.1114 24.8892 29.9143 24.8892V24.8823Z" fill="white"/>
<path d="M52.4492 25.1167V34.9622H47.5703V25.1167L40.0098 10.9622H45.345L50.0414 20.6352L54.6746 10.9622H60.0098L52.4492 25.1167Z" fill="white"/>
<path d="M72.8288 34.9622H63.0098V10.9622H72.436C77.0182 10.9622 79.6825 13.589 79.6825 17.705C79.6825 20.3664 77.9674 22.09 76.7826 22.6622C78.1965 23.3379 80.0098 24.8547 80.0098 28.0538C80.0098 32.5353 77.0117 34.9622 72.8288 34.9622ZM72.0694 15.1403H67.5854V20.6697H72.0694C74.0136 20.6697 75.1003 19.5597 75.1003 17.905C75.1003 16.2572 74.0136 15.1403 72.0694 15.1403ZM72.364 24.8823H67.5854V30.784H72.364C74.4391 30.784 75.4276 29.4396 75.4276 27.8194C75.4276 26.1992 74.4391 24.8892 72.364 24.8892V24.8823Z" fill="white"/>
<path d="M105.455 15.1403V34.9622H100.565V15.1403H94.0098V10.9622H112.01V15.1403H105.455Z" fill="white"/>
</g>
</svg>
