<svg width="199" height="60" viewBox="0 0 199 60" fill="none" xmlns="http://www.w3.org/2000/svg">
<mask id="mask0_158_1751" style="mask-type:alpha" maskUnits="userSpaceOnUse" x="0" y="0" width="199" height="60">
<rect x="0.333984" width="198" height="60" fill="#D9D9D9"/>
</mask>
<g mask="url(#mask0_158_1751)">
<path d="M29.2802 34.1265C28.6908 34.4942 28.0031 34.561 27.4792 34.2602C26.8243 33.859 26.4314 32.9564 26.4314 31.7195V27.9419C26.4314 26.1366 25.7438 24.8328 24.5649 24.4985C22.5675 23.8968 21.0613 26.4041 20.5046 27.3401L16.9682 33.1235V26.0029C16.9355 24.3648 16.4116 23.3954 15.4292 23.0945C14.7743 22.8939 13.792 22.9942 12.8424 24.4651L4.95096 37.3692C3.90314 35.3299 3.34648 33.0567 3.34648 30.75C3.34648 22.9608 9.46971 16.6424 16.9682 16.6424C24.4667 16.6424 30.5899 22.9608 30.5899 30.75V30.7834V30.8169C30.6554 32.3212 30.197 33.5247 29.2802 34.1265ZM33.6024 30.75V30.7166V30.6831C33.5697 21.2224 26.1039 13.5 16.9682 13.5C7.79974 13.5 0.333984 21.2224 0.333984 30.75C0.333984 40.2442 7.79974 48 16.9682 48C21.1923 48 25.1871 46.3619 28.2651 43.3866C28.8872 42.7849 28.92 41.8154 28.3306 41.1802C27.7739 40.5451 26.8243 40.5116 26.2022 41.0799C26.2022 41.0799 26.2022 41.0799 26.1694 41.1134C23.6808 43.5203 20.3409 44.891 16.9027 44.891C12.8751 44.891 9.27324 43.0857 6.78466 40.2108L13.8902 28.577V33.9593C13.8902 36.5334 14.8726 37.3692 15.6912 37.6032C16.5098 37.8372 17.7541 37.6701 19.0966 35.4971L22.9932 29.0451C23.1242 28.8445 23.2224 28.6439 23.3534 28.5102V31.7863C23.3534 34.1933 24.303 36.1323 25.9402 37.0683C27.4137 37.9375 29.2802 37.8372 30.8192 36.8677C32.7183 35.5974 33.7334 33.391 33.6024 30.75ZM56.7856 24.8663C57.1785 25.1003 57.5387 25.6686 57.5387 26.1701C57.5387 26.9724 56.8838 27.641 56.1307 27.641C55.9342 27.641 55.7705 27.5741 55.6068 27.5407C54.7227 26.8721 53.6094 26.4375 52.4306 26.4375C49.6473 26.4375 47.7481 28.7442 47.7481 31.6192C47.7481 34.4942 49.68 36.7674 52.4306 36.7674C53.8058 36.7674 55.0501 36.1991 55.967 35.2965C56.1962 35.1294 56.4909 35.0291 56.7856 35.0291C57.5387 35.0291 58.1281 35.6308 58.1281 36.3997C58.1281 36.9012 57.8334 37.3358 57.4732 37.5698C56.1307 38.7398 54.3297 39.5087 52.4633 39.5087C48.2065 39.5087 44.7356 35.9317 44.7356 31.5189C44.7356 27.1061 48.2065 23.5291 52.4633 23.5291C54.035 23.4956 55.5413 23.9971 56.7856 24.8663ZM64.5788 28.2093C67.493 28.2093 69.9161 30.7166 69.9161 33.8256C69.9161 36.9012 67.4603 39.5421 64.5788 39.5421C61.5335 39.5421 59.0122 36.9346 59.0122 33.8256C59.0122 30.7166 61.5335 28.2093 64.5788 28.2093ZM64.546 36.7674C65.8231 36.7674 66.9036 35.5305 66.9036 33.859C66.9036 32.1875 65.8231 31.1177 64.546 31.1177C63.1708 31.1177 62.0247 32.1541 62.0247 33.859C62.0247 35.4971 63.1708 36.7674 64.546 36.7674ZM71.7498 37.8038V29.9142C71.7498 29.0451 72.4047 28.343 73.2561 28.343C74.0747 28.343 74.7623 29.0451 74.7623 29.9142V37.8038C74.7623 38.673 74.0747 39.375 73.2561 39.375C72.4375 39.375 71.7498 38.6395 71.7498 37.8038ZM71.5206 25.3677C71.5206 24.3314 72.3065 23.5291 73.2561 23.5291C74.2384 23.5291 75.0243 24.3648 75.0243 25.3677C75.0243 26.3706 74.2384 27.173 73.2561 27.173C72.2738 27.1395 71.5206 26.3372 71.5206 25.3677ZM80.5254 33.5247V37.8038C80.5254 38.673 79.8377 39.375 79.0191 39.375C78.2005 39.375 77.5129 38.673 77.5129 37.8038V29.5465C77.5129 28.8779 78.0368 28.343 78.6917 28.343C79.3466 28.343 79.8377 28.9113 79.8377 29.5465C81.0493 28.3765 82.1299 28.2093 83.1449 28.2093C86.1574 28.2093 87.5 30.516 87.5 33.157V37.8038C87.5 38.673 86.8123 39.375 85.9937 39.375C85.1751 39.375 84.4875 38.673 84.4875 37.8038V33.5247C84.4875 32.1875 84.3237 31.0509 82.4246 31.0509C81.082 31.0509 80.5254 32.1875 80.5254 33.5247ZM97.2578 35.1628C96.8976 35.1628 96.6684 34.9956 96.472 34.7616L92.9683 30.8837V37.8038C92.9683 38.673 92.2807 39.375 91.4621 39.375C90.6434 39.375 89.9558 38.673 89.9558 37.8038V24.0974C90.054 23.8634 90.2832 23.6962 90.5125 23.6962C90.7744 23.6962 91.0036 23.9302 91.1674 24.0974L96.7667 30.516C96.9304 30.7166 97.1269 30.8169 97.2578 30.8169C97.3561 30.8169 97.5853 30.7166 97.749 30.516L103.348 24.0974C103.512 23.9302 103.709 23.6962 104.003 23.6962C104.265 23.6962 104.494 23.8634 104.56 24.0974V37.8038C104.56 38.673 103.905 39.375 103.054 39.375C102.235 39.375 101.547 38.673 101.547 37.8038V30.8837L98.0437 34.7616C97.7817 34.9956 97.5525 35.1628 97.2578 35.1628ZM111.731 36.7674C113.073 36.7674 114.22 35.5305 114.22 33.859C114.22 32.1875 113.041 31.0843 111.731 31.0843C110.421 31.0843 109.341 32.2209 109.341 33.859C109.341 35.4637 110.388 36.7674 111.731 36.7674ZM114.94 38.1715L114.874 37.8038C114.285 38.9738 112.419 39.5087 111.24 39.5087C108.424 39.5087 106.328 36.9012 106.328 33.7922C106.328 30.7166 108.456 28.1759 111.403 28.1759C111.895 28.1759 113.597 28.3096 114.907 29.8808L114.973 29.5131C114.973 28.8445 115.464 28.3096 116.119 28.3096C116.774 28.3096 117.297 28.8779 117.297 29.5131V38.1381C117.297 38.8067 116.774 39.3416 116.119 39.3416C115.431 39.375 114.94 38.8067 114.94 38.1715ZM125.582 31.0509H125.254C123.355 31.1512 122.995 32.2544 122.995 33.5247V37.8038C122.995 38.673 122.307 39.375 121.489 39.375C120.67 39.375 119.983 38.673 119.983 37.8038V29.5465C119.983 28.8779 120.506 28.343 121.161 28.343C121.816 28.343 122.307 28.9113 122.307 29.5465C123.421 28.4767 124.338 28.2427 125.254 28.2093H125.549C126.27 28.2093 126.924 28.8445 126.924 29.6468C126.957 30.3823 126.302 31.0509 125.582 31.0509ZM137.206 37.0683C137.337 37.3023 137.435 37.5363 137.435 37.8038C137.435 38.6061 136.715 39.3416 135.929 39.3416C135.405 39.3416 134.947 38.9404 134.587 38.4724L131.116 34.3605V37.7703C131.116 38.6395 130.428 39.3416 129.609 39.3416C128.791 39.3416 128.103 38.6395 128.103 37.7703V25.234C128.103 24.3648 128.758 23.6628 129.609 23.6628C130.461 23.6628 131.116 24.3648 131.116 25.234V33.0567L134.587 29.1454C134.947 28.7442 135.372 28.3096 135.896 28.3096C136.65 28.3096 137.337 29.0116 137.337 29.814C137.337 30.048 137.272 30.3154 137.141 30.516L134.39 33.5916L137.206 37.0683ZM143.1 31.0843C142.282 31.0843 140.939 31.5189 140.939 32.8227H145.294C145.261 31.5189 143.886 31.0843 143.1 31.0843ZM147.03 34.7951H140.939C140.939 36.6337 142.675 36.9346 143.428 36.9346C143.984 36.9346 144.77 36.8343 145.392 36.5334C145.589 36.3997 145.883 36.2994 146.178 36.2994C146.833 36.2994 147.39 36.8677 147.39 37.5698C147.39 38.0378 147.095 38.439 146.735 38.673C145.818 39.375 144.606 39.5421 143.46 39.5421C140.415 39.5421 137.894 37.8706 137.894 33.9593C137.894 30.8837 139.433 28.2093 143.035 28.2093C145.949 28.2093 148.143 30.1483 148.208 33.5916C148.208 34.2267 147.684 34.7951 147.03 34.7951ZM155.412 39.5087H154.594C152.301 39.5087 150.959 38.4724 150.959 34.8285V31.0509H150.173C149.453 31.0509 148.83 30.3823 148.83 29.6468C148.83 28.8445 149.485 28.2093 150.173 28.2093H150.959V25.3009C150.959 24.4317 151.614 23.7297 152.465 23.7297C153.284 23.7297 153.971 24.4317 153.971 25.3009V28.2093H155.216C155.936 28.2093 156.558 28.8445 156.558 29.6468C156.558 30.3823 155.903 31.0509 155.216 31.0509H153.971V34.2267C153.971 36.3328 154.07 36.7674 154.986 36.7674H155.412C156.133 36.7674 156.755 37.3692 156.755 38.1381C156.755 38.8735 156.133 39.5087 155.412 39.5087ZM169.983 24.8663C170.376 25.1003 170.737 25.6686 170.737 26.1701C170.737 26.9724 170.082 27.641 169.329 27.641C169.132 27.641 168.968 27.5741 168.805 27.5407C167.921 26.8721 166.807 26.4375 165.628 26.4375C162.845 26.4375 160.946 28.7442 160.946 31.6192C160.946 34.4942 162.878 36.7674 165.628 36.7674C167.004 36.7674 168.248 36.1991 169.165 35.2965C169.394 35.1294 169.689 35.0291 169.983 35.0291C170.737 35.0291 171.326 35.6308 171.326 36.3997C171.326 36.9012 171.031 37.3358 170.671 37.5698C169.329 38.7398 167.528 39.5087 165.661 39.5087C161.404 39.5087 157.933 35.9317 157.933 31.5189C157.933 27.1061 161.404 23.5291 165.661 23.5291C167.233 23.4956 168.772 23.9971 169.983 24.8663ZM177.613 36.7674C178.955 36.7674 180.102 35.5305 180.102 33.859C180.102 32.1875 178.923 31.0843 177.613 31.0843C176.27 31.0843 175.223 32.2209 175.223 33.859C175.223 35.4637 176.303 36.7674 177.613 36.7674ZM180.822 38.1715L180.756 37.8038C180.167 38.9738 178.301 39.5087 177.122 39.5087C174.306 39.5087 172.21 36.9012 172.21 33.7922C172.21 30.7166 174.338 28.1759 177.285 28.1759C177.777 28.1759 179.479 28.3096 180.789 29.8808L180.855 29.5131C180.855 28.8445 181.346 28.3096 182.001 28.3096C182.656 28.3096 183.18 28.8779 183.18 29.5131V38.1381C183.18 38.8067 182.656 39.3416 182.001 39.3416C181.313 39.375 180.822 38.8067 180.822 38.1715ZM191.398 36.7674C192.741 36.7674 193.789 35.4637 193.789 33.859C193.789 32.1875 192.708 31.0843 191.398 31.0843C190.056 31.0843 188.91 32.1875 188.91 33.859C188.91 35.5305 190.056 36.7674 191.398 36.7674ZM188.91 38.6061V42.5174C188.91 43.3866 188.222 44.0887 187.404 44.0887C186.585 44.0887 185.897 43.3866 185.897 42.5174V29.5465C185.897 28.8779 186.421 28.343 187.076 28.343C187.731 28.343 188.222 28.9113 188.222 29.6802C189.335 28.5102 190.711 28.2093 191.759 28.2093C194.673 28.2093 196.834 30.7166 196.834 33.8256C196.834 36.9012 194.771 39.5421 191.922 39.5421C191.038 39.5087 189.728 39.2413 188.91 38.6061Z" fill="white"/>
</g>
</svg>
