<svg width="133" height="40" viewBox="0 0 133 40" fill="none" xmlns="http://www.w3.org/2000/svg">
<mask id="mask0_158_1515" style="mask-type:alpha" maskUnits="userSpaceOnUse" x="0" y="0" width="133" height="40">
<rect x="0.5" width="132" height="40" fill="#D9D9D9"/>
</mask>
<g mask="url(#mask0_158_1515)">
<path d="M122.537 16.4604H125.126V17.7458C125.424 17.2614 125.809 16.9075 126.281 16.684C126.771 16.4565 127.306 16.3419 127.846 16.3487C128.591 16.3487 129.28 16.5598 129.914 16.982C130.56 17.3918 131.069 17.9755 131.441 18.7331C131.814 19.4782 132 20.3227 132 21.2665C132 22.2104 131.814 23.061 131.441 23.8186C131.069 24.5637 130.56 25.1474 129.914 25.5697C129.3 25.9736 128.581 26.1875 127.846 26.1844C127.312 26.1844 126.803 26.0602 126.319 25.8118C125.854 25.5573 125.448 25.2083 125.126 24.7873V29.8728H122.537V16.4604ZM127.269 18.9194C126.871 18.9194 126.511 19.0249 126.188 19.236C125.865 19.4472 125.604 19.7328 125.406 20.0929C125.219 20.4531 125.126 20.8443 125.126 21.2665C125.126 21.6888 125.219 22.08 125.406 22.4401C125.604 22.8003 125.865 23.0859 126.188 23.297C126.511 23.5081 126.871 23.6137 127.269 23.6137C127.654 23.6137 128.014 23.5072 128.349 23.297C128.684 23.0859 128.945 22.8003 129.131 22.4401C129.33 22.08 129.429 21.6888 129.429 21.2665C129.429 20.8443 129.33 20.4531 129.131 20.0929C128.953 19.7416 128.683 19.4454 128.349 19.236C128.027 19.0288 127.652 18.9188 127.269 18.9194ZM115.93 16.3487C116.886 16.3487 117.675 16.5101 118.296 16.833C118.929 17.1435 119.401 17.5959 119.712 18.1929C120.022 18.789 120.177 19.503 120.177 20.3351V26.0726H117.663V25.0853C117.427 25.3585 117.042 25.6131 116.508 25.8482C116.002 26.0687 115.457 26.1831 114.906 26.1844C114.21 26.1844 113.614 26.054 113.117 25.7932C112.633 25.5324 112.267 25.1847 112.018 24.75C111.771 24.3194 111.642 23.8308 111.646 23.3343C111.646 22.4028 111.987 21.6755 112.67 21.1548C113.353 20.6332 114.409 20.3724 115.837 20.3724H117.663V19.9439C117.663 19.4223 117.495 19.0436 117.16 18.8076C116.827 18.5597 116.419 18.4344 116.005 18.4528C115.634 18.4603 115.276 18.5845 114.98 18.8076C114.682 19.0187 114.514 19.3292 114.477 19.739H111.851C111.9 19.1181 112.093 18.553 112.428 18.0438C112.763 17.5222 113.229 17.1124 113.825 16.8144C114.421 16.5039 115.123 16.3487 115.93 16.3487ZM115.483 24.3402C115.843 24.3402 116.179 24.2719 116.489 24.1353C116.799 23.9987 117.054 23.7751 117.253 23.4647C117.451 23.1418 117.551 22.7319 117.551 22.2352V22.1234L116.005 22.1412C115.52 22.1545 115.111 22.2538 114.775 22.4401C114.452 22.614 114.291 22.8872 114.291 23.2597C114.291 23.5951 114.39 23.8621 114.589 24.0608C114.788 24.247 115.086 24.3402 115.483 24.3402ZM111.278 16.4604L108.111 26.0726H105.689L104.422 22.1234L104.329 21.8813C104.115 21.2115 103.904 20.5409 103.696 19.8694H103.677C103.516 20.4283 103.329 21.043 103.118 21.7136C103.094 21.7757 103.069 21.844 103.044 21.9176C103.033 21.988 103.014 22.057 102.988 22.1234L101.721 26.0726H99.3182L96.1328 16.4604H98.7407L99.9143 20.2792C100.125 20.9747 100.337 21.7384 100.548 22.5705H100.566C100.653 22.2352 100.815 21.6639 101.051 20.8567C101.088 20.7574 101.125 20.6642 101.162 20.5773C101.2 20.4779 101.231 20.3786 101.256 20.2792L102.504 16.4604H104.907L106.155 20.2792L106.192 20.391C106.428 21.1361 106.652 21.8626 106.863 22.5705H106.881C106.968 22.1483 107.13 21.5273 107.366 20.7077C107.39 20.6456 107.415 20.5773 107.44 20.5028L107.515 20.2792L108.67 16.4604H111.278ZM88.4765 21.341C88.4765 21.8378 88.5759 22.2662 88.7746 22.6264C88.9796 22.9684 89.2765 23.2459 89.6315 23.4274C89.9916 23.6137 90.4077 23.7068 90.8796 23.7068C91.3018 23.7068 91.6558 23.6323 91.9414 23.4833C92.227 23.3343 92.4444 23.1418 92.5934 22.9058C92.7424 22.6699 92.8169 22.4215 92.8169 22.1607C92.8169 21.7881 92.6865 21.4652 92.4257 21.192C92.1649 20.9064 91.7862 20.7077 91.2894 20.5959L89.7433 20.2047C88.6504 19.9439 87.7935 19.4844 87.1726 18.8262C86.5625 18.1836 86.2282 17.3278 86.2411 16.4418C86.2411 15.6843 86.4523 15.0136 86.8745 14.43C87.2972 13.8335 87.8688 13.3582 88.5324 13.0515C89.2225 12.7145 89.9813 12.5424 90.7492 12.5485C91.5937 12.5485 92.3388 12.7472 92.9846 13.1446C93.626 13.5122 94.1494 14.055 94.4935 14.7094C94.8536 15.3676 95.0337 16.0932 95.0337 16.8889H92.4816C92.4816 16.3425 92.3078 15.8954 91.96 15.5476C91.6247 15.1875 91.1838 15.0065 90.6374 15.0065C90.2773 15.0065 89.9606 15.0819 89.6874 15.231C89.4428 15.3528 89.2365 15.5397 89.0913 15.7712C88.9432 15.9927 88.8721 16.2568 88.8889 16.5228C88.9057 16.7887 89.0096 17.0417 89.1844 17.2428C89.3831 17.4664 89.706 17.6331 90.1531 17.7458L91.662 18.1183C92.9411 18.4412 93.8974 18.9318 94.5307 19.59C95.1641 20.2358 95.4808 21.0802 95.4808 22.1234C95.4808 22.9182 95.2821 23.6261 94.8847 24.247C94.4997 24.8556 93.9595 25.3337 93.264 25.6814C92.5686 26.0167 91.78 26.1844 90.8982 26.1844C89.9792 26.1844 89.1347 25.9857 88.3648 25.5883C87.6148 25.1978 86.9841 24.6122 86.5392 23.8931C86.0921 23.1604 85.8686 22.3097 85.8686 21.341H88.4765ZM79.448 12.6603L75.7783 26.0726H73.1144L71.2694 19.1802C71.2165 18.9683 71.1609 18.7572 71.1026 18.5468C71.0508 18.316 70.9947 18.0862 70.934 17.8576L70.7859 17.1869C70.7362 16.9634 70.6865 16.7523 70.6369 16.5536H70.6182C70.5686 16.7399 70.5118 16.9439 70.4497 17.1683C70.399 17.3853 70.3496 17.6027 70.3016 17.8203L70.1153 18.5282C70.0656 18.7517 70.0088 18.969 69.9467 19.1802L68.1043 26.0726H65.4405L61.7689 12.6603H64.4141L66.2397 19.5527C66.2894 19.739 66.3391 19.9377 66.3887 20.1488C66.4384 20.3599 66.4881 20.5773 66.5378 20.8008C66.5874 21.0244 66.6371 21.2417 66.6868 21.4528C66.7365 21.6639 66.7737 21.8688 66.7986 22.0675H66.8163C66.8669 21.844 66.9228 21.608 66.9848 21.3597C67.0469 21.0989 67.109 20.8319 67.1711 20.5587C67.2208 20.3848 67.2643 20.2171 67.3015 20.0557C67.3512 19.8818 67.3947 19.7142 67.4319 19.5527L69.2761 12.6603H71.94L73.8028 19.5527C73.84 19.6893 73.8773 19.8321 73.9146 19.9812L74.0263 20.4283C74.1381 20.8753 74.2685 21.4218 74.4166 22.0675H74.4362L74.5107 21.695C74.5355 21.5584 74.5665 21.4156 74.6038 21.2665C74.728 20.6704 74.8584 20.0992 74.9941 19.5527L76.8019 12.6603H79.448ZM57.1651 26.1844C56.3193 26.1907 55.4879 25.9652 54.7612 25.5324C54.0365 25.0931 53.4345 24.478 53.011 23.7441C52.5888 22.987 52.3706 22.1333 52.3776 21.2665C52.3776 20.3724 52.5887 19.5527 53.011 18.8076C53.4278 18.0683 54.0317 17.4515 54.762 17.0193C55.4844 16.5751 56.3171 16.3427 57.1651 16.3487H57.1828C58.0255 16.3411 58.8529 16.5737 59.5681 17.0193C60.2959 17.4488 60.8944 18.0666 61.3006 18.8076C61.7352 19.5651 61.9526 20.3848 61.9526 21.2665C61.9526 22.1483 61.7352 22.9679 61.3006 23.7255C60.8915 24.4692 60.2941 25.0924 59.5681 25.5324C58.8492 25.9667 58.0236 26.1924 57.1837 26.1844H57.1651ZM57.1828 23.6137C57.5723 23.6162 57.9543 23.5063 58.2828 23.297C58.6181 23.0859 58.8789 22.8065 59.0652 22.4587C59.2639 22.0986 59.3632 21.7012 59.3632 21.2665C59.3632 20.8443 59.2639 20.4531 59.0652 20.0929C58.8763 19.7432 58.6004 19.4481 58.2642 19.236C57.942 19.0288 57.5668 18.9188 57.1837 18.9194H57.1651C56.7553 18.9194 56.3827 19.0249 56.0474 19.236C55.7121 19.4472 55.4442 19.7328 55.2464 20.0929C55.0479 20.4521 54.9453 20.8562 54.9483 21.2665C54.9483 21.6888 55.0477 22.08 55.2464 22.4401C55.4451 22.8003 55.7121 23.0859 56.0474 23.297C56.3827 23.5081 56.7553 23.6137 57.1651 23.6137H57.1828ZM45.023 26.1844C43.8251 26.1926 42.6473 25.8769 41.614 25.2707C40.5925 24.6592 39.7407 23.8013 39.1365 22.7754C38.5303 21.7422 38.2146 20.5643 38.2228 19.3664C38.2228 18.137 38.528 17.0007 39.1365 15.9575C39.7377 14.934 40.5906 14.0812 41.614 13.4799C42.6435 12.8627 43.8228 12.5405 45.023 12.5485C46.1159 12.5485 47.0899 12.7969 47.9476 13.2936C48.8045 13.778 49.4876 14.3989 49.9968 15.1565C50.5184 15.914 50.8474 16.6902 50.9841 17.485H48.3016C48.1858 17.0305 47.9548 16.6135 47.631 16.2742C47.2965 15.9146 46.8903 15.629 46.4388 15.4359C45.9956 15.2284 45.5124 15.1203 45.023 15.1192C44.2756 15.1128 43.5409 15.3123 42.8994 15.6958C42.2699 16.077 41.745 16.6086 41.3719 17.2428C40.9881 17.8843 40.7883 18.619 40.7944 19.3664C40.7944 20.1364 40.9869 20.8443 41.371 21.4901C41.7445 22.1241 42.2697 22.6554 42.8994 23.0362C43.5409 23.4197 44.2756 23.6192 45.023 23.6128C45.793 23.6128 46.4822 23.4088 47.0899 22.999C47.6888 22.6027 48.1305 22.0097 48.3388 21.3224H51.0027C50.8623 22.1886 50.5245 23.0108 50.0154 23.7255C49.4938 24.4582 48.7983 25.0543 47.929 25.5138C47.0721 25.9608 46.1035 26.1844 45.023 26.1844Z" fill="white"/>
<path d="M27.5607 13.2577H32.9342L31.5014 17.7606C31.2715 18.4797 30.8188 19.1071 30.2089 19.552C29.5989 19.9969 28.8631 20.2363 28.1082 20.2355H26.6269L24.2143 27.8145C24.2619 28.6429 22.6983 30.2894 21.3677 30.2894H13.1113C12.3565 30.2901 11.6204 30.0509 11.0106 29.606C10.4009 29.1611 9.94877 28.5335 9.719 27.8145L7.30731 20.2355H5.82512C5.07018 20.2362 4.33427 19.997 3.72442 19.552C3.1145 19.107 2.66248 18.479 2.43281 17.7597L1 13.2577H6.37347L3.5399 9H30.3943L27.5607 13.2577ZM13.2023 16.0965C12.1467 16.0965 11.2896 17.0235 11.2896 18.166C11.2896 19.3094 12.1458 20.2363 13.2023 20.2364C14.2579 20.2364 15.1141 19.3094 15.1141 18.166C15.1141 17.0235 14.2579 16.0965 13.2023 16.0965ZM20.7319 16.0965C19.6763 16.0965 18.82 17.0235 18.82 18.166C18.82 19.3094 19.6763 20.2364 20.7319 20.2364C21.7883 20.2363 22.6446 19.3094 22.6446 18.166C22.6446 17.0235 21.7874 16.0966 20.7319 16.0965Z" fill="white"/>
</g>
</svg>
