<svg width="133" height="40" viewBox="0 0 133 40" fill="none" xmlns="http://www.w3.org/2000/svg">
<mask id="mask0_158_1482" style="mask-type:alpha" maskUnits="userSpaceOnUse" x="0" y="0" width="133" height="40">
<rect x="0.5" width="132" height="40" fill="#D9D9D9"/>
</mask>
<g mask="url(#mask0_158_1482)">
<path d="M35.1058 20.947L20.8683 29.167C19.885 29.7347 19.5479 30.9917 20.1154 31.9746C20.6829 32.9575 21.94 33.2941 22.9233 32.7264L37.1608 24.5064C38.144 23.9387 38.4811 22.6817 37.9136 21.6988C37.3461 20.7159 36.089 20.3793 35.1058 20.947Z" fill="white"/>
<path d="M25.2573 18.3191L14.5792 24.4841C13.5959 25.0518 13.2589 26.3088 13.8264 27.2917C14.3938 28.2745 15.651 28.6112 16.6342 28.0434L27.3123 21.8784C28.2956 21.3108 28.6326 20.0538 28.0652 19.0709C27.4977 18.088 26.2406 17.7514 25.2573 18.3191Z" fill="white"/>
<path d="M27.8988 8.46408L13.6612 16.6841C12.678 17.2518 12.3409 18.5088 12.9084 19.4917C13.4759 20.4746 14.733 20.8112 15.7162 20.2435L29.9538 12.0234C30.937 11.4558 31.2741 10.1988 30.7065 9.2159C30.1391 8.23301 28.882 7.8964 27.8988 8.46408Z" fill="white"/>
<path d="M59.5064 33.0957H42.125V8.7117H59.1931V12.4741H46.2708V18.7443H57.9743V22.4023H46.2708V29.3334H59.5078V33.0957H59.5064ZM68.8882 33.6179C64.4991 33.6179 61.9556 30.8655 61.9556 26.8599V14.6343H66.0656V26.6868C66.0656 28.7769 67.5291 29.9957 69.7237 29.9957C72.5448 29.9957 74.2169 28.1503 74.2511 25.7813V14.6343H78.3613V33.0957H75.0524L74.7394 30.4134C73.6592 32.3991 71.4646 33.6179 68.8882 33.6179ZM86.0263 33.0957H81.916V6.9707H86.0263V33.0957ZM98.1206 33.6179C92.4783 33.6179 88.6111 29.578 88.6111 23.9344C88.6111 17.8387 92.6172 14.0764 97.7729 14.0764C102.929 14.0764 106.481 17.7343 106.585 23.7255V24.7012H92.7213C93.0002 27.94 95.02 30.1345 98.1548 30.1345C100.279 30.1345 101.881 29.0902 102.509 27.2433H106.515C105.575 31.2145 102.475 33.6179 98.1206 33.6179ZM92.896 21.81H102.336C101.814 19.162 100.176 17.5597 97.7729 17.5597C95.3695 17.5597 93.5238 19.162 92.896 21.81ZM113.207 33.0957H109.097V14.6343H112.406L112.894 18.2565C114.078 15.7487 116.239 14.4254 119.303 14.4254H119.999V18.431H119.303C115.471 18.431 113.207 20.4867 113.207 23.9687V33.0943V33.0957Z" fill="white"/>
</g>
</svg>
