<svg width="133" height="40" viewBox="0 0 133 40" fill="none" xmlns="http://www.w3.org/2000/svg">
<mask id="mask0_158_1450" style="mask-type:alpha" maskUnits="userSpaceOnUse" x="0" y="0" width="133" height="40">
<rect x="0.5" width="132" height="40" fill="#D9D9D9"/>
</mask>
<g mask="url(#mask0_158_1450)">
<path d="M15.5207 7.88258H30.266C30.4119 7.88258 30.4914 7.69663 30.3721 7.60366C28.33 5.94341 25.731 4.94727 22.8933 4.94727C20.0556 4.94727 17.4567 5.94341 15.4146 7.60366C15.2952 7.69663 15.3615 7.88258 15.5207 7.88258Z" fill="white"/>
<path d="M34.0982 19.9028H27.8792C27.7333 19.9028 27.6007 19.9825 27.5079 20.1021C26.4869 21.5631 24.8028 22.5194 22.8801 22.5194C20.9574 22.5194 19.2733 21.5631 18.2523 20.1021C18.1727 19.9825 18.0269 19.9028 17.881 19.9028H11.662C11.5161 19.9028 11.4101 20.0357 11.4498 20.1818C12.8819 25.1492 17.4567 28.7752 22.8669 28.7752C28.277 28.7752 32.8518 25.1492 34.2839 20.1818C34.3237 20.0489 34.2176 19.9028 34.0717 19.9028H34.0982Z" fill="white"/>
<path d="M11.8749 13.2088H18.3724C18.505 13.2088 18.6243 13.1556 18.7039 13.0627C19.7382 11.9204 21.2233 11.2032 22.8808 11.2032C24.5384 11.2032 26.0235 11.9204 27.0578 13.0627C27.1374 13.1556 27.27 13.2088 27.3893 13.2088H33.8868C34.0327 13.2088 34.1387 13.0627 34.0857 12.9298C33.6216 11.6149 32.9453 10.4063 32.0834 9.34371C32.0038 9.25074 31.8845 9.18433 31.7519 9.18433H14.0098C13.8772 9.18433 13.7578 9.23745 13.6783 9.34371C12.8164 10.4063 12.1401 11.6149 11.676 12.9298C11.6229 13.0627 11.729 13.2088 11.8749 13.2088Z" fill="white"/>
<path d="M34.4168 14.5237H28.2906C28.1712 14.5237 28.0917 14.6432 28.1314 14.7628C28.3966 15.4136 28.5292 16.1308 28.5292 16.8746C28.5292 17.6184 28.4629 17.9106 28.3171 18.402C28.2906 18.5083 28.3701 18.6145 28.4762 18.6145H34.4963C34.5759 18.6145 34.6422 18.5614 34.6555 18.4684C34.7218 17.9504 34.7615 17.4059 34.7615 16.8613C34.7615 16.3167 34.6952 15.3737 34.5626 14.6565C34.5494 14.5768 34.4831 14.5237 34.4035 14.5237H34.4168Z" fill="white"/>
<path d="M17.4577 18.3888C17.3251 17.8974 17.2455 17.3927 17.2455 16.8614C17.2455 16.3301 17.3914 15.4004 17.6434 14.7496C17.6831 14.6433 17.6036 14.5105 17.4842 14.5105H11.358C11.2785 14.5105 11.2122 14.5636 11.1989 14.6433C11.0663 15.3605 11 16.0911 11 16.8481C11 17.6052 11.0398 17.924 11.1061 18.4552C11.1061 18.5349 11.1856 18.6013 11.2652 18.6013H17.2853C17.3914 18.6013 17.471 18.4951 17.4445 18.3888H17.4577Z" fill="white"/>
<path d="M45.2243 12.1463C44.3491 12.3588 43.5535 12.7572 42.8507 13.3682C42.4927 13.6737 42.1612 14.019 41.8828 14.4042V12.3057H37.666V28.4432H41.8828V19.3982C41.8828 18.4818 42.148 17.7114 42.6651 17.0872C43.2088 16.4629 43.9381 16.0645 44.853 15.8918C45.7945 15.7191 46.8155 15.8254 47.9161 16.2106V12.2393C47.0012 11.9736 46.0995 11.9338 45.2243 12.1463Z" fill="white"/>
<path d="M60.9112 14.2183C60.5267 13.7933 60.0891 13.4081 59.5985 13.0894C58.4979 12.3589 57.2249 12.0003 55.7928 12.0003C54.3607 12.0003 53.0479 12.3589 51.8545 13.0894C50.6611 13.8199 49.7329 14.8293 49.0433 16.1177C48.3803 17.406 48.0488 18.8272 48.0488 20.3679C48.0488 21.9086 48.3803 23.3563 49.0433 24.658C49.7329 25.933 50.6611 26.9292 51.8545 27.6597C53.0347 28.3902 54.3474 28.7488 55.7928 28.7488C57.2381 28.7488 58.4979 28.3902 59.5985 27.6597C60.0891 27.3409 60.5267 26.9557 60.9112 26.5307V28.4433H65.1279V5.30615H60.9112V14.2316V14.2183ZM60.3543 22.6922C59.983 23.3829 59.4658 23.9275 58.8294 24.3126C58.1929 24.6978 57.4636 24.9103 56.6812 24.9103C55.8989 24.9103 55.1695 24.7111 54.5331 24.3126C53.8966 23.9142 53.3794 23.3696 53.0081 22.6922C52.6369 21.9883 52.4512 21.2179 52.4512 20.3812C52.4512 19.5444 52.6369 18.7873 53.0081 18.0967C53.3794 17.3927 53.8966 16.8482 54.5331 16.4763C55.1828 16.0778 55.8989 15.8786 56.6812 15.8786C57.4636 15.8786 58.1929 16.0778 58.8294 16.4763C59.4791 16.8482 59.983 17.3927 60.3543 18.0967C60.7256 18.7873 60.9112 19.5444 60.9112 20.3812C60.9112 21.2179 60.7256 21.9883 60.3543 22.6922Z" fill="white"/>
<path d="M80.7744 13.3417C79.3953 12.4385 77.8306 12.0002 76.0537 12.0002C74.2769 12.0002 73.0304 12.3721 71.7442 13.1292C70.4579 13.8597 69.4369 14.8691 68.6811 16.1575C67.9518 17.4326 67.5938 18.8405 67.5938 20.3812C67.5938 21.9219 67.965 23.3696 68.7209 24.6712C69.49 25.9463 70.5375 26.9424 71.8503 27.673C73.163 28.4035 74.6216 28.7621 76.2261 28.7621C77.8306 28.7621 79.4086 28.3769 80.7213 27.6065C82.0341 26.8096 83.0684 25.7604 83.811 24.4454L80.35 22.8782C79.9522 23.5821 79.4086 24.1532 78.6925 24.565C78.003 24.9634 77.2206 25.1627 76.3455 25.1627C75.4703 25.1627 74.6482 24.9502 73.9454 24.5384C73.2426 24.1267 72.6857 23.5423 72.2879 22.8118C72.1287 22.5196 72.0094 22.2008 71.9298 21.8687H84.3811C84.6729 20.1022 84.4872 18.4553 83.8242 16.9544C83.1745 15.427 82.1667 14.2183 80.8009 13.3284L80.7744 13.3417ZM73.8393 16.2505C74.5023 15.8387 75.2449 15.6262 76.0537 15.6262C76.8626 15.6262 77.5787 15.8122 78.2019 16.1841C78.8516 16.556 79.3555 17.0872 79.7268 17.7513C79.8859 18.0435 80.0185 18.3357 80.1114 18.6545H71.9696C72.0492 18.4154 72.142 18.1896 72.2613 17.9638C72.6326 17.2068 73.163 16.6356 73.826 16.2372L73.8393 16.2505Z" fill="white"/>
<path d="M94.5251 12.1463C93.6499 12.3588 92.8543 12.7572 92.1515 13.3682C91.7935 13.6737 91.462 14.019 91.1835 14.4042V12.3057H86.9668V28.4432H91.1835V19.3982C91.1835 18.4818 91.4487 17.7114 91.9659 17.0872C92.5096 16.4629 93.2389 16.0645 94.1538 15.8918C95.0953 15.7191 96.1163 15.8254 97.2169 16.2106V12.2393C96.302 11.9736 95.4003 11.9338 94.5251 12.1463Z" fill="white"/>
<path d="M103.396 5.30615H99.1797V28.4566H103.396V5.30615Z" fill="white"/>
<path d="M117.837 12.3054V20.8457C117.837 21.5364 117.678 22.1606 117.373 22.7185C117.055 23.263 116.604 23.6881 115.994 24.0068C115.411 24.299 114.748 24.4451 113.992 24.4451C113.236 24.4451 112.613 24.299 112.082 24.0068C111.578 23.6881 111.194 23.2763 110.929 22.7583C110.663 22.2138 110.518 21.5762 110.518 20.8457V12.3054H106.301V21.5895C106.301 22.9044 106.566 24.06 107.083 25.0561C107.6 26.0522 108.343 26.8359 109.298 27.407C110.279 27.9648 111.432 28.257 112.758 28.257C114.085 28.257 115.198 27.9516 116.193 27.3539C116.829 26.9554 117.373 26.464 117.811 25.8796V26.7562C117.811 28.0445 117.4 29.1071 116.591 29.9173C115.795 30.7541 114.814 31.1658 113.62 31.1658C112.427 31.1658 112.135 30.9533 111.525 30.515C110.915 30.1032 110.438 29.479 110.053 28.6688L106.301 30.6744C107.004 31.9893 107.998 33.0386 109.271 33.8355C110.544 34.6324 111.989 35.0308 113.607 35.0308C115.225 35.0308 116.591 34.6722 117.85 33.9683C119.137 33.2643 120.144 32.2682 120.874 30.9931C121.63 29.7446 122.001 28.3367 122.001 26.7695V12.3187H117.784L117.837 12.3054Z" fill="white"/>
</g>
</svg>
