<svg width="133" height="40" viewBox="0 0 133 40" fill="none" xmlns="http://www.w3.org/2000/svg">
<mask id="mask0_158_1531" style="mask-type:alpha" maskUnits="userSpaceOnUse" x="0" y="0" width="133" height="40">
<rect x="0.5" width="132" height="40" fill="#D9D9D9"/>
</mask>
<g mask="url(#mask0_158_1531)">
<path d="M23.6883 13.2532H35.7639C36.0868 13.2532 36.291 13.5367 36.2144 13.8842L35.6109 16.6915C35.5346 17.0389 35.2117 17.3224 34.8888 17.3224H27.9288C27.6144 17.3224 27.2999 17.5967 27.2319 17.9351V17.9717C27.1555 18.31 27.3509 18.5843 27.6654 18.5843H33.92C34.2429 18.5843 34.4468 18.8678 34.3702 19.2153L33.9283 21.2911C33.852 21.6385 33.529 21.922 33.2061 21.922H26.9515C26.6371 21.922 26.3227 22.1964 26.2547 22.5347C26.1867 22.873 26.3822 23.1474 26.6966 23.1474H33.6566C33.9795 23.1474 34.1834 23.4308 34.1068 23.7783L33.4951 26.6222C33.4185 26.9697 33.0956 27.2532 32.7727 27.2532H20.697C20.374 27.2532 20.1701 26.9697 20.2466 26.6222L22.9744 13.9024C23.0509 13.5549 23.3738 13.2715 23.6967 13.2715L23.6883 13.2532Z" fill="white"/>
<path d="M45.1976 13.8671L43.3303 22.5071C43.253 22.8553 43.4594 23.1393 43.7864 23.1393H49.7583C50.0853 23.1393 50.2917 23.4233 50.2141 23.7715L49.5948 26.621C49.5172 26.9691 49.1902 27.2532 48.8719 27.2532H37.7027C37.3757 27.2532 37.1692 26.9691 37.2468 26.621L40.0002 13.8854C40.0777 13.5372 40.4047 13.2532 40.7317 13.2532H44.733C45.06 13.2532 45.2665 13.5372 45.1889 13.8854L45.1976 13.8671Z" fill="white"/>
<path d="M15.9728 13.2532H2.66263C2.32226 13.2532 1.9819 13.5369 1.91024 13.8846L1.26533 16.7303C1.18472 17.078 1.39969 17.3617 1.74005 17.3617H2.72533C3.03883 17.3617 3.26275 17.6545 3.20005 17.9656L1.24742 26.6218C1.1668 26.9695 1.38177 27.2532 1.72214 27.2532H5.89613C6.2365 27.2532 6.57686 26.9695 6.65748 26.6218L7.47255 23.0074C7.55317 22.6597 7.89353 22.3761 8.2339 22.3761H9.25502C9.49684 22.3761 9.68494 22.5133 9.74764 22.7238L11.0464 26.9238C11.1091 27.1251 11.2883 27.2532 11.5122 27.2532H15.8832C16.358 27.2532 16.77 26.7224 16.6266 26.3107L15.4354 22.8336C15.3279 22.5133 15.5518 22.1107 15.9101 21.946C17.4238 21.2689 18.6241 19.8048 19.0719 17.8192C19.7079 15.01 18.3822 13.2623 15.9638 13.2623L15.9728 13.2532ZM14.262 17.9565C14.1814 18.3042 13.841 18.5878 13.5006 18.5878H9.07586C8.7355 18.5878 8.52053 18.3042 8.60115 17.9565C8.68177 17.6087 9.02214 17.3251 9.3625 17.3251H13.7873C14.1276 17.3251 14.3426 17.6087 14.262 17.9565Z" fill="white"/>
<path d="M69.2009 26.3473L66.4889 13.6192C66.4371 13.3996 66.2643 13.2532 66.031 13.2532H56.2707C55.9425 13.2532 55.6142 13.5368 55.5454 13.8845L54.9234 16.7303C54.8455 17.078 55.0527 17.3617 55.381 17.3617H56.3572C56.7373 17.3617 56.9532 17.81 56.7373 18.1395L51.3561 26.3656C51.0883 26.7774 51.2695 27.2532 51.7017 27.2532H56.0895C56.3485 27.2532 56.6163 27.0885 56.763 26.8322L57.5665 25.4963C57.7132 25.2493 57.9723 25.0845 58.2316 25.0845H62.7231C62.9648 25.0845 63.1549 25.2401 63.2067 25.4689L63.4918 26.8414C63.5436 27.0793 63.7335 27.2349 63.9841 27.2349H68.4843C68.9161 27.2349 69.3048 26.7591 69.2183 26.3473H69.2009ZM61.7986 21.6623H60.5292C60.1231 21.6623 59.9245 21.2322 60.1491 20.8297L61.2114 18.8898C61.5222 18.3224 62.2739 18.3316 62.3344 18.8898L62.5416 20.8297C62.5847 21.2414 62.2047 21.6623 61.7986 21.6623Z" fill="white"/>
<path d="M86.7896 13.2623H81.884C81.6913 13.2623 81.4816 13.3722 81.3473 13.5645L79.3936 16.4945C79.1337 16.8425 78.6726 16.8974 78.488 16.5952L76.5511 13.4638C76.4755 13.3356 76.3415 13.2623 76.1821 13.2623H71.9305C71.4359 13.2623 71.0501 13.9124 71.3185 14.297L75.5364 20.9994C75.6705 21.1917 75.6455 21.4847 75.4861 21.7228L72.0229 26.3467C71.7209 26.7496 71.8802 27.2532 72.3078 27.2532H76.9703C77.1631 27.2532 77.3727 27.1433 77.507 26.951L87.0748 14.1596C87.3766 13.7568 87.2172 13.2532 86.7896 13.2532V13.2623Z" fill="white"/>
<path d="M132.21 20.0873C132.131 19.6038 131.683 19.2368 131.156 19.2368H104.818C104.563 19.2368 104.466 19.0308 104.449 18.9682C104.431 18.9055 104.37 18.6906 104.572 18.5205L118.36 7.10576C118.764 6.77451 118.896 6.20152 118.65 5.77179C118.501 5.50321 118.255 5.32416 117.956 5.27044C117.666 5.21672 117.368 5.28834 117.139 5.48531L103.412 16.8553C103.21 17.0254 103.009 16.918 102.956 16.8822C102.903 16.8464 102.719 16.7121 102.78 16.4525L104.493 8.90527C104.607 8.386 104.361 7.85779 103.922 7.66978C103.641 7.55339 103.342 7.56235 103.07 7.70559C102.815 7.83988 102.622 8.09056 102.561 8.386L100.584 17.106C100.532 17.3388 100.338 17.3925 100.286 17.4104C100.233 17.4283 100.031 17.4462 99.8905 17.2582L97.0453 13.4801C96.729 13.0594 96.1669 12.9161 95.7455 13.1489C95.4821 13.2921 95.2975 13.5428 95.236 13.8382C95.1745 14.1337 95.236 14.4381 95.4206 14.6708L98.3802 18.6011C98.4768 18.7264 98.4856 18.8876 98.4241 19.0219C98.3538 19.1651 98.2219 19.2457 98.0727 19.2457H90.3005C89.7734 19.2457 89.3255 19.6128 89.2463 20.0962C89.1936 20.4006 89.2728 20.6961 89.4747 20.9288C89.668 21.1616 89.9403 21.2869 90.239 21.2869H96.975C97.2296 21.2869 97.3261 21.4929 97.3437 21.5555C97.3614 21.6182 97.4229 21.8331 97.2207 22.0032L92.812 25.6559C92.417 25.9782 92.294 26.5422 92.5136 26.954C92.6539 27.2226 92.9088 27.4106 93.216 27.4733C93.5147 27.536 93.8134 27.4643 94.033 27.2763L98.3802 23.6684C98.5821 23.4983 98.784 23.6057 98.8367 23.6415C98.8894 23.6773 99.0739 23.8116 99.0124 24.0712L97.2999 31.6274C97.1857 32.1198 97.4053 32.6211 97.8093 32.827C98.0815 32.9613 98.4064 32.9703 98.6875 32.827C98.9685 32.6928 99.1704 32.4421 99.2407 32.1466L101.217 23.4267C101.27 23.1939 101.463 23.1402 101.515 23.1222C101.577 23.1133 101.77 23.0864 101.911 23.2744L110.658 34.8683C110.825 35.101 111.097 35.2355 111.387 35.2532C111.404 35.2532 111.431 35.2532 111.448 35.2532C111.729 35.2532 111.993 35.1369 112.177 34.9399C112.511 34.5818 112.52 33.9999 112.204 33.5791L103.412 21.9315C103.316 21.8062 103.307 21.645 103.368 21.5108C103.439 21.3675 103.571 21.2869 103.72 21.2869H131.226C131.525 21.2869 131.797 21.1527 131.99 20.9288C132.183 20.6961 132.263 20.4006 132.219 20.0962L132.21 20.0873Z" fill="white"/>
</g>
</svg>
