<svg width="133" height="40" viewBox="0 0 133 40" fill="none" xmlns="http://www.w3.org/2000/svg">
<mask id="mask0_158_1563" style="mask-type:alpha" maskUnits="userSpaceOnUse" x="0" y="0" width="133" height="40">
<rect x="0.5" width="132" height="40" fill="#D9D9D9"/>
</mask>
<g mask="url(#mask0_158_1563)">
<path d="M10.142 6.31577C9.72793 6.25191 9.71048 6.24441 9.90534 6.21464C10.2787 6.15754 11.1605 6.23536 11.7681 6.379C13.1866 6.71425 14.4774 7.57305 15.855 9.09829L16.2211 9.50348L16.7447 9.41979C18.9507 9.06731 21.1948 9.34745 23.0719 10.2096C23.5882 10.4468 24.4023 10.9189 24.504 11.0402C24.5365 11.0789 24.5959 11.3278 24.6363 11.5934C24.7756 12.5123 24.7058 13.2166 24.4232 13.7426C24.2694 14.0289 24.2608 14.1196 24.3642 14.3646C24.4467 14.5601 24.677 14.7048 24.9048 14.7045C25.3713 14.7039 25.8733 13.9542 26.106 12.911L26.1983 12.4967L26.3814 12.7028C27.3855 13.8339 28.1741 15.3764 28.3097 16.4743L28.3449 16.7606L28.1761 16.5004C27.8856 16.0526 27.5938 15.7477 27.22 15.5018C26.5464 15.0586 25.8341 14.9078 23.9476 14.809C22.2438 14.7197 21.2796 14.575 20.3234 14.265C18.6966 13.7376 17.8766 13.0353 15.9442 10.5145C15.0859 9.39481 14.5554 8.77532 14.0277 8.27644C12.8285 7.14288 11.6503 6.54838 10.142 6.31577Z" fill="white"/>
<path d="M24.8876 8.81586C24.9304 8.06557 25.0328 7.5707 25.2386 7.11876C25.3201 6.93986 25.3964 6.79346 25.4081 6.79346C25.4199 6.79346 25.3844 6.92551 25.3294 7.08686C25.1798 7.52547 25.1552 8.12538 25.2582 8.82336C25.389 9.70896 25.4635 9.83674 26.4049 10.7934C26.8465 11.2421 27.3601 11.808 27.5462 12.051L27.8848 12.4928L27.5462 12.177C27.1323 11.791 26.1801 11.038 25.9698 10.9303C25.8288 10.8581 25.8078 10.8594 25.7208 10.9455C25.6407 11.0248 25.6238 11.144 25.6126 11.7075C25.5954 12.5857 25.4749 13.1494 25.1843 13.713C25.0272 14.0179 25.0025 13.9528 25.1446 13.6087C25.2508 13.3518 25.2616 13.2388 25.2608 12.3887C25.2592 10.6805 25.0553 10.2698 23.859 9.56635C23.5561 9.38813 23.0568 9.13112 22.7496 8.99517C22.4424 8.85921 22.1984 8.7408 22.2073 8.73196C22.2412 8.69843 23.4076 9.03696 23.8771 9.21652C24.5755 9.48364 24.6908 9.51826 24.7757 9.48604C24.8325 9.46443 24.86 9.2998 24.8876 8.81586Z" fill="white"/>
<path d="M10.9469 11.7379C10.1063 10.5873 9.58625 8.82312 9.69885 7.50431L9.73367 7.09619L9.925 7.13091C10.2843 7.19607 10.9039 7.42535 11.194 7.60055C11.9901 8.08127 12.3346 8.71419 12.6853 10.3394C12.7881 10.8154 12.9229 11.3541 12.9848 11.5365C13.0846 11.8301 13.4619 12.5158 13.7685 12.9611C13.9893 13.2818 13.8426 13.4338 13.3543 13.39C12.6086 13.323 11.5986 12.6299 10.9469 11.7379Z" fill="white"/>
<path d="M23.8686 20.3017C19.9403 18.729 18.5566 17.364 18.5566 15.0608C18.5566 14.7219 18.5685 14.4446 18.5827 14.4446C18.5971 14.4446 18.749 14.5564 18.9205 14.6932C19.7171 15.3284 20.6091 15.5997 23.0785 15.9579C24.5317 16.1687 25.3494 16.339 26.1038 16.5877C28.5014 17.3783 29.9849 18.9828 30.3386 21.1681C30.4414 21.8031 30.3812 22.9939 30.2145 23.6216C30.0829 24.1173 29.6814 25.0108 29.575 25.045C29.5455 25.0546 29.5165 24.942 29.5089 24.789C29.4685 23.9684 29.0514 23.1695 28.351 22.5711C27.5546 21.8906 26.4846 21.3489 23.8686 20.3017Z" fill="white"/>
<path d="M21.1125 20.9549C21.0633 20.6638 20.978 20.2919 20.9228 20.1285L20.8226 19.8315L21.0088 20.0394C21.2665 20.3268 21.4701 20.6948 21.6427 21.1849C21.7743 21.559 21.7891 21.6701 21.7881 22.2778C21.7871 22.8745 21.7707 22.9996 21.649 23.3363C21.4574 23.8671 21.2193 24.2436 20.82 24.6476C20.1024 25.3737 19.1799 25.7757 17.8485 25.9425C17.617 25.9715 16.9426 26.0203 16.3496 26.0509C14.8552 26.1282 13.8716 26.2879 12.9879 26.5964C12.8608 26.6408 12.7475 26.6678 12.7359 26.6564C12.7001 26.6209 13.3019 26.2642 13.7988 26.0263C14.4996 25.6906 15.1972 25.5075 16.7603 25.2487C17.5324 25.1208 18.3297 24.9657 18.5323 24.904C20.4443 24.3211 21.4272 22.8169 21.1125 20.9549Z" fill="white"/>
<path d="M22.9114 24.1346C22.3895 23.0191 22.2696 21.942 22.5556 20.9376C22.5863 20.8303 22.6353 20.7424 22.665 20.7424C22.6946 20.7424 22.8177 20.8086 22.9387 20.8895C23.1791 21.0504 23.6615 21.3216 24.9467 22.0183C26.5503 22.8875 27.4646 23.5607 28.0863 24.3298C28.6309 25.0033 28.9679 25.7703 29.1301 26.7057C29.2219 27.2356 29.1681 28.5105 29.0313 29.0441C28.6002 30.7264 27.5981 32.0479 26.1688 32.819C25.9595 32.932 25.7714 33.0247 25.751 33.0252C25.7307 33.0256 25.807 32.8327 25.9206 32.5965C26.4014 31.5971 26.4562 30.625 26.0927 29.5431C25.8701 28.8806 25.4163 28.0723 24.5 26.706C23.4347 25.1176 23.1735 24.6948 22.9114 24.1346Z" fill="white"/>
<path d="M8.15666 30.154C9.61443 28.9301 11.4282 28.0608 13.0805 27.7939C13.7925 27.6789 14.9787 27.7245 15.638 27.8924C16.695 28.1613 17.6405 28.7636 18.1321 29.4813C18.6127 30.1827 18.8188 30.7939 19.0334 32.1538C19.1181 32.6903 19.2102 33.2289 19.238 33.3509C19.3993 34.0557 19.713 34.6191 20.1017 34.902C20.7191 35.3513 21.7821 35.3793 22.828 34.9736C23.0055 34.9047 23.1596 34.8572 23.1705 34.8679C23.2083 34.9054 22.6817 35.2559 22.3101 35.4405C21.8103 35.6886 21.4129 35.7846 20.8846 35.7846C19.9267 35.7846 19.1315 35.3002 18.468 34.3123C18.3374 34.1179 18.0439 33.5356 17.8158 33.0184C17.1153 31.4296 16.7693 30.9456 15.9559 30.4159C15.2479 29.955 14.3349 29.8725 13.6481 30.2073C12.7459 30.647 12.4943 31.7934 13.1404 32.5199C13.3973 32.8086 13.8761 33.0576 14.2677 33.106C15.0004 33.1966 15.6299 32.6424 15.6299 31.9071C15.6299 31.4296 15.4453 31.157 14.9806 30.9485C14.346 30.6638 13.6637 30.9966 13.667 31.5894C13.6684 31.8422 13.779 32.0009 14.034 32.1156C14.1975 32.1891 14.2012 32.195 14.0679 32.1675C13.4855 32.0474 13.3491 31.3494 13.8175 30.8859C14.3796 30.3296 15.5421 30.5751 15.9413 31.3345C16.1089 31.6534 16.1284 32.2887 15.9822 32.6722C15.6549 33.5308 14.7008 33.9822 13.7329 33.7366C13.0738 33.5693 12.8056 33.3882 12.011 32.5745C10.6304 31.1604 10.0944 30.8864 8.10407 30.5775L7.72266 30.5184L8.15666 30.154Z" fill="white"/>
<path fill-rule="evenodd" clip-rule="evenodd" d="M1.67902 4.84579C6.28963 10.4097 9.46519 12.7052 9.81809 13.1902C10.1094 13.5907 9.99979 13.9507 9.50063 14.2329C9.22305 14.3898 8.65236 14.5487 8.36663 14.5487C8.04344 14.5487 7.93248 14.4247 7.93248 14.4247C7.74509 14.248 7.63956 14.2789 6.67728 12.5806C5.3413 10.5195 4.22328 8.80968 4.19277 8.78105C4.12225 8.71485 4.12346 8.71709 6.54105 13.018C6.93166 13.9144 6.61875 14.2435 6.61875 14.3712C6.61875 14.6309 6.54748 14.7674 6.22525 15.1248C5.68806 15.7206 5.44792 16.3901 5.27458 17.7757C5.08024 19.329 4.5338 20.4262 3.01945 22.3039C2.13299 23.4031 1.98795 23.6046 1.76427 24.0477C1.48253 24.6056 1.40505 24.9181 1.37366 25.6226C1.34046 26.3674 1.40511 26.8486 1.63398 27.5609C1.83436 28.1843 2.04352 28.5961 2.57824 29.4195C3.03969 30.1301 3.30539 30.6582 3.30539 30.8648C3.30539 31.0292 3.33695 31.0294 4.052 30.8689C5.76322 30.4846 7.15272 29.8089 7.9342 28.9808C8.41784 28.4682 8.53139 28.1852 8.53507 27.4828C8.53749 27.0233 8.52124 26.9272 8.39634 26.6629C8.19301 26.2326 7.82287 25.875 7.00704 25.3205C5.9381 24.5939 5.48153 24.009 5.35542 23.2046C5.25196 22.5445 5.37198 22.0789 5.96333 20.8466C6.57541 19.571 6.72708 19.0275 6.82969 17.7418C6.89597 16.9111 6.98774 16.5836 7.22777 16.3206C7.47812 16.0464 7.70347 15.9535 8.32303 15.8694C9.33307 15.7322 9.97622 15.4724 10.5049 14.988C10.9635 14.5678 11.1554 14.1629 11.1849 13.5534L11.2072 13.0915L10.9509 12.7944C10.0228 11.7184 1.05747 4 1.00035 4C0.98815 4 1.29357 4.38063 1.67902 4.84579ZM3.82638 26.4654C4.03622 26.096 3.92473 25.6209 3.57372 25.3889C3.24208 25.1696 2.72687 25.2729 2.72687 25.5585C2.72687 25.6457 2.77536 25.7093 2.88465 25.7651C3.06867 25.8594 3.08203 25.9652 2.93724 26.1816C2.79061 26.4007 2.80244 26.5934 2.97064 26.7243C3.2417 26.9353 3.62542 26.8192 3.82638 26.4654Z" fill="white"/>
<path fill-rule="evenodd" clip-rule="evenodd" d="M11.8441 16.1117C11.3699 16.2565 10.909 16.7561 10.7663 17.2801C10.6793 17.5997 10.7286 18.1604 10.859 18.3336C11.0697 18.6132 11.2734 18.6869 11.8249 18.683C12.9047 18.6756 13.8435 18.2151 13.9526 17.6394C14.0421 17.1675 13.6297 16.5136 13.0619 16.2265C12.7689 16.0784 12.1456 16.0197 11.8441 16.1117ZM13.1064 17.0931C13.2729 16.8578 13.2001 16.6036 12.9168 16.4316C12.3775 16.1042 11.5619 16.3751 11.5619 16.8817C11.5619 17.1339 11.9873 17.409 12.3771 17.409C12.6366 17.409 12.9917 17.2552 13.1064 17.0931Z" fill="white"/>
<path d="M119.936 34.484V17.6973H122.358V19.601C123.026 18.5132 124.311 17.4006 126.462 17.4006C129.676 17.4006 132 19.9472 132 23.8038C132 27.6605 129.676 30.207 126.462 30.207C124.262 30.207 123.001 29.0449 122.383 28.0561V34.484H119.936ZM125.894 28.2539C128.292 28.2539 129.454 26.2513 129.454 23.8038C129.454 21.3563 128.292 19.3538 125.894 19.3538C123.496 19.3538 122.284 21.4058 122.284 23.8038C122.284 26.2018 123.496 28.2539 125.894 28.2539Z" fill="white"/>
<path d="M110.801 30.207C108.601 30.207 106.623 28.8719 106.623 26.5974C106.623 24.3725 108.181 23.3588 110.826 22.8397L112.507 22.4935C113.817 22.2216 114.435 21.9496 114.435 20.936C114.435 19.9224 113.595 19.2054 112.112 19.2054C110.505 19.2054 109.466 20.1943 109.367 21.826L106.846 21.6034C107.019 18.9829 109.12 17.4006 112.136 17.4006C115.251 17.4006 116.908 18.9087 116.908 21.48V29.9103H114.559V28.4764H114.534C113.966 29.4158 112.705 30.207 110.801 30.207ZM111.444 28.4517C113.175 28.4517 114.534 27.3145 114.534 25.2872V23.8038C111.963 24.2241 110.752 24.5701 110.01 25.0399C109.441 25.3861 109.12 25.8804 109.12 26.548C109.12 27.6852 110.06 28.4517 111.444 28.4517Z" fill="white"/>
<path d="M90.8913 29.9108L87.0098 17.698H89.6057L92.2757 26.9194H92.3005L95.0694 17.698H97.5168L100.31 26.8947H100.335L103.005 17.698H105.552L101.67 29.9108H99.0991L96.3302 20.4916H96.3055L93.4871 29.9108H90.8913Z" fill="white"/>
<path d="M81.0204 30.207C77.9795 30.207 75.7544 28.7978 75.4824 25.8804L77.9053 25.5839C78.0289 27.5121 79.3887 28.4022 81.0698 28.4022C82.7262 28.4022 83.8387 27.6605 83.8387 26.4738C83.8387 25.2872 82.7015 25.0399 81.1687 24.6938L79.3639 24.2736C77.3861 23.8038 76.0264 22.8644 76.0264 20.9855C76.0264 18.9087 78.0784 17.4006 80.9709 17.4006C83.7645 17.4006 85.6681 18.8098 85.9895 21.0844L83.542 21.4305C83.3689 19.9719 82.3059 19.2054 80.872 19.2054C79.4134 19.2054 78.4739 19.9224 78.4739 20.8618C78.4739 21.7518 79.0178 22.0732 80.5506 22.4194L82.3554 22.8397C84.9265 23.4329 86.2862 24.2736 86.2862 26.2266C86.2862 28.6742 84.0118 30.207 81.0204 30.207Z" fill="white"/>
<path d="M70.9238 29.9107V17.6977H73.3714V29.9107H70.9238ZM70.9238 15.7941V12.9016H73.3714V15.7941H70.9238Z" fill="white"/>
<path d="M57.2402 29.9103V17.6973H59.663V19.4279H59.6877C60.38 18.3649 61.7397 17.4006 63.594 17.4006C66.3134 17.4006 67.9204 19.0323 67.9204 21.999V29.9103H65.4728V23.0621C65.4728 20.8618 64.9784 19.4527 62.9264 19.4527C60.8744 19.4527 59.6877 21.1091 59.6877 23.0868V29.9103H57.2402Z" fill="white"/>
<path d="M47.7241 30.2074C43.6696 30.2074 41.1973 27.9081 41.1973 23.6806V12.9016H43.7685V23.5322C43.7685 26.2764 45.0541 28.0565 47.7241 28.0565C50.6166 28.0565 51.6796 26.2764 51.6796 23.5322V12.9016H54.2509V23.6806C54.2509 27.9081 51.7785 30.2074 47.7241 30.2074Z" fill="white"/>
</g>
</svg>
